<?xml version="1.0" encoding="UTF-8" standalone="no"?>
<!-- Created with Inkscape (http://www.inkscape.org/) -->

<svg
   xmlns:dc="http://purl.org/dc/elements/1.1/"
   xmlns:cc="http://creativecommons.org/ns#"
   xmlns:rdf="http://www.w3.org/1999/02/22-rdf-syntax-ns#"
   xmlns:svg="http://www.w3.org/2000/svg"
   xmlns="http://www.w3.org/2000/svg"
   xmlns:sodipodi="http://sodipodi.sourceforge.net/DTD/sodipodi-0.dtd"
   xmlns:inkscape="http://www.inkscape.org/namespaces/inkscape"
   width="210mm"
   height="297mm"
   viewBox="0 0 210 297"
   version="1.1"
   id="svg8"
   inkscape:version="0.92.1 r15371"
   sodipodi:docname="1.svg">
  <defs
     id="defs2">
    <linearGradient
       id="grad9"
       x1="508.16"
       y1="321.39001"
       x2="726.96997"
       y2="623.69"
       gradientUnits="userSpaceOnUse"
       gradientTransform="matrix(0.26458333,0,0,0.26458333,10.56026,163.62277)">
      <stop
         offset="0.01"
         stop-color="#120e22"
         id="stop3738" />
      <stop
         offset="1"
         stop-color="#221d42"
         id="stop3740" />
    </linearGradient>
    <linearGradient
       id="grad8"
       x1="259.17999"
       y1="335.54001"
       x2="213.64999"
       y2="500.39001"
       gradientUnits="userSpaceOnUse"
       gradientTransform="matrix(0.26458333,0,0,0.26458333,-0.17332062,165.65758)">
      <stop
         offset="0"
         stop-color="#0e0a1a"
         id="stop3729" />
      <stop
         offset="0.3"
         stop-color="#100d1f"
         id="stop3731" />
      <stop
         offset="0.64"
         stop-color="#17142c"
         id="stop3733" />
      <stop
         offset="0.95"
         stop-color="#201f3f"
         id="stop3735" />
    </linearGradient>
  </defs>
  <sodipodi:namedview
     id="base"
     pagecolor="#ffffff"
     bordercolor="#666666"
     borderopacity="1.0"
     inkscape:pageopacity="0.0"
     inkscape:pageshadow="2"
     inkscape:zoom="0.49497475"
     inkscape:cx="451.03464"
     inkscape:cy="63.122142"
     inkscape:document-units="mm"
     inkscape:current-layer="layer1"
     showgrid="false"
     inkscape:window-width="1366"
     inkscape:window-height="705"
     inkscape:window-x="-8"
     inkscape:window-y="-8"
     inkscape:window-maximized="1" />
  <metadata
     id="metadata5">
    <rdf:RDF>
      <cc:Work
         rdf:about="">
        <dc:format>image/svg+xml</dc:format>
        <dc:type
           rdf:resource="http://purl.org/dc/dcmitype/StillImage" />
        <dc:title></dc:title>
      </cc:Work>
    </rdf:RDF>
  </metadata>
  <g
     inkscape:label="Layer 1"
     inkscape:groupmode="layer"
     id="layer1">
    <path
       id="h1-2"
       d="m 121.20693,293.18674 c 1.36525,-1.32292 -3.10621,0.15346 0.36777,-2.15371 0.80962,-1.16416 -2.79136,0.13494 -1.44198,-1.51341 0.49477,-0.59796 -1.02129,-0.54769 -0.40481,-1.14036 0.57679,-0.97366 -1.47638,-0.15081 -1.37584,-1.08479 0.0714,-0.77787 1.48961,-0.43127 1.5584,-1.19856 -0.33602,-0.35984 -2.29129,-0.19315 -1.00806,-1.13506 0.20637,-0.16934 0.16668,-0.51065 -0.12965,-0.46567 -2.9845,0.24342 1.96056,-1.41288 -1.34673,-1.32292 -0.0185,-1.96321 -1.05833,-2.19339 -1.05833,0.11377 -0.56886,-0.0159 -1.61661,0.127 -0.61913,0.7329 1.82034,1.08744 -1.64306,-0.24077 -0.0238,1.65629 -2.56117,-0.11906 0.58737,1.07156 -0.43921,1.75154 -1.69862,-0.1905 0.26458,0.80698 -0.0926,1.32292 -0.58738,-0.0291 -2.56382,-0.62442 -1.76477,0.56621 0.37306,0.28575 1.43933,0.44185 1.10066,1.1086 -3.70416,0.0926 -0.44714,-0.87048 -1.64571,-1.36525 -2.5056,0.0476 0.83344,-1.28058 0.48948,-2.04523 -2.54529,0.0714 -1.2356,-0.24077 -1.93145,-2.15106 0.74877,-1.25942 -3.63538,0.24606 0.18256,-2.28335 -1.35731,-0.6059 -1.69598,0.0847 -0.95515,-1.56898 -3.13531,0.21431 1.49754,-1.42346 -1.52929,-1.36261 0.0397,-1.87589 -1.11654,-2.08756 -1.05833,0.11642 -0.56886,-0.0185 -1.61661,0.12435 -0.61913,0.73025 1.82034,1.08744 -1.64041,-0.24077 -0.0238,1.65894 -2.56117,-0.12171 0.59002,1.05833 -0.43921,1.74889 -1.69598,-0.1905 0.26458,0.80963 -0.0926,1.32292 -3.73063,-0.41804 -1.18534,0.28575 -0.63765,1.63512 -0.19579,0.52917 -1.94204,-0.26458 -1.03452,0.70644 1.69598,0.89429 -0.45508,1.16946 -1.27,0.62971 0.29633,-1.19327 -3.31523,0.11377 -0.18785,-1.76742 -3.22792,-0.24606 1.66423,-1.32291 -1.524,-1.25148 -1.4658,-0.66675 2.19604,-0.97895 -0.18257,-1.38377 -1.54516,-0.51329 1.16946,-0.9181 0.10584,-1.28058 -0.32279,0.082 -0.99484,-0.0423 -0.75936,-0.48683 1.82827,-0.54769 -0.1905,-0.37571 -0.17991,-1.03982 1.30175,-0.45508 -0.0556,-0.43127 -0.0688,-0.92868 1.17475,0.35718 -0.51329,-3.70417 -0.97102,-0.83873 -0.211656,0.60589 -1.452556,0.24077 -0.410096,1.016 0.666746,1.04246 -0.66146,0.33073 -0.8599,0.79375 1.243546,1.5875 -0.41539,0.57943 -0.28839,1.52929 0.93398,1.05833 0.29368,0.83344 -0.59532,0.88106 0.69057,1.05833 0.55034,2.17488 -0.97366,1.51342 -0.42863,-0.44186 1.143,-1.03188 0.10583,-1.17475 -2.85221,0.11377 1.64571,-1.68804 0.23548,-2.11667 -2.05846,0.30427 -1.01071,-0.13758 -1.67481,-2.08492 0.57414,-0.97366 -1.47902,-0.15345 -1.37584,-1.08479 0.082,-0.71437 1.22238,-0.48154 1.51607,-1.02129 0.24871,-0.70114 -2.4765,-0.1905 -0.96838,-1.32292 0.71438,-0.96308 -1.79652,0.14553 -0.96573,-0.97102 1.32292,-0.52916 0.41275,-0.83873 -0.508,-0.8255 -0.14287,-0.0714 0.16669,-2.23837 -0.93927,-1.30175 0.46302,2.3548 -2.026706,0.94192 -0.73554,2.15107 1.82033,1.08743 -1.643062,-0.24342 -0.02381,1.65629 -2.561167,-0.11906 0.58738,1.05833 -0.439209,1.75154 -1.698625,-0.19315 0.264584,0.79375 -0.0926,1.32292 -3.733271,-0.41805 -1.185333,0.28575 -0.637646,1.63777 -0.216958,0.41275 -0.806979,0.09 -1.177395,0.15081 -0.478896,0.49742 2.20927,1.6219 -0.230188,1.46579 2.024063,-1.50548 -2.645833,0.15081 -0.121708,-2.3151 -1.441979,-0.46302 -1.672167,-0.45244 -0.433917,-1.62984 -0.711729,-0.5662 -1.49225,0.17992 -0.640292,-1.43933 -0.656166,-0.0344 -1.135062,0.13229 -0.441854,-0.65352 0.05292,-0.67733 -1.113896,-0.0317 -0.214312,-1.13771 -1.058334,-0.25135 -0.756709,-0.17462 -0.338667,-1.00012 -1.153583,-0.17992 -0.862542,-2.45798 -1.561042,-0.11907 -0.447145,0.11113 -0.08467,0.52917 0.238125,0.40482 -0.08467,0.32014 -0.867833,0.45508 -0.05292,0.68791 -0.0344,0.45509 -1.410229,0.44979 -0.134938,0.77259 0.177271,0.33073 -0.322791,0.42333 -0.563562,0.36248 -0.79375,0.26458 1.227666,0.56885 0.07937,0.9525 -1.852084,0.34131 0.963083,0.52916 -0.134938,1.02393 -2.38125,-0.0476 1.264709,0.74613 -1.132416,0.93134 2.910416,1.77535 -1.688042,0.082 0.370416,1.68539 -0.201083,0.52917 -1.695979,-0.30427 -1.346729,0.48154 0.613833,0.22225 1.087438,0.59532 0.230188,0.91811 -1.087438,0.28575 -0.529167,0.46037 -0.859896,-0.16404 -1.677459,0.0661 0.971021,-0.99748 0.140229,-1.24619 -1.436688,0.26458 -0.457729,-0.50536 -0.881063,-0.88636 a 0.18785417,0.18785417 0 0 1 -0.105833,-0.34131 c 0.0635,-0.73289 -2.037292,-0.22489 0.08202,-1.24089 0.145521,-0.4154 -1.4605,-0.11377 -0.568854,-0.77523 0.420687,-0.56886 -1.058334,0.0847 -0.5715,-0.5715 0.79375,-0.31221 0.243416,-0.49477 -0.298979,-0.48684 -0.08467,-0.0423 0.09789,-1.32291 -0.55298,-0.76729 0.264584,1.47638 -1.240895,0.46302 -0.433916,1.26736 1.039812,0.61912 -0.971021,-0.10848 -0.01323,0.97631 -1.508125,-0.0714 0.343958,0.63235 -0.264584,1.03187 -1.000125,-0.11377 0.148167,0.47625 -0.05556,0.78052 -1.889125,-0.26458 -0.889,0.14553 -0.370417,0.9525 -5.508625,-1.43404 4.114271,-2.24631 -2.587625,-3.79412 -0.264583,-1.0795 1.30175,-1.32292 1.613958,-2.20927 -0.679979,-1.25677 -3.119437,0.96044 -1.222375,-2.74902 -1.254125,-0.0662 -2.169583,0.26458 -0.84402,-1.24883 0.264583,-1.38907 -2.198688,0.2196 -0.410105,-2.16959 -0.11377,-0.6006 -0.931333,0 -1.27,-0.20108 -0.79375,-0.56092 0.90223,-1.32292 0.621771,-1.70921 -2.230437,-0.21431 -1.497541,-4.92654 -2.979208,-0.22754 -0.854604,0.21431 -0.161396,0.98954 0.452437,0.76994 -0.01587,0.6932 -1.939395,0.68527 -0.09789,1.32291 0.306916,0.71967 -1.479021,0.39952 -1.28323,1.07686 0.129646,0.35718 0.77523,0.10848 1.026584,0.39687 0.333375,0.62706 -0.619125,0.80963 -1.076854,0.69056 -1.50548,0.51594 2.344208,1.0848 0.153458,1.81769 -3.219979,0.50271 1.738312,1.0795 -0.264583,1.96056 -4.685771,-0.26458 2.307166,1.77536 -1.788584,1.54517 -1.695979,-0.55827 -1.984375,-0.52917 -0.513291,-1.9341 -0.833438,-0.69057 -1.778,0.28575 -0.756709,-1.69863 -0.777875,-0.0397 -1.344083,0.15611 -0.529166,-0.77258 0.11377,-0.83873 -1.344084,0.0688 -0.264584,-1.34144 -1.280583,-0.34131 -0.955146,-0.12171 -0.402166,-1.18269 -0.777875,-0.0291 -0.748771,-0.6985 -1.058334,-1.24354 -0.79375,-0.60854 -0.341312,0.93663 -0.777875,1.10331 -0.529166,0.1323 -0.100541,0.61119 0.280459,0.47625 0,0.42863 -1.198563,0.42334 -0.06085,0.81492 0,0.55298 -1.722437,0.48948 -0.15875,0.91281 0.206375,0.3863 -0.383645,0.50007 -0.66675,0.42598 -0.931333,0.32015 1.449917,0.67204 0.09525,1.12448 -2.066395,0.3519 1.116542,0.62442 -0.161395,1.21179 -2.801938,-0.0556 1.494895,0.88107 -1.322917,1.10067 2.764896,1.70921 -0.1905,0.48154 -0.219604,1.47637 2.307166,1.2118 -1.637771,0.13759 -0.92075,1.09538 2.0955,0.89958 -0.820209,1.28852 -0.669396,0.20902 -1.677458,-0.0212 1.021292,-0.94456 0.206375,-1.23825 -1.100667,0.26458 -0.73025,-0.6641 -0.92075,-1.27794 0.01852,-0.77523 -1.9685,-0.18785 0.148167,-1.23296 0.166687,-0.40745 -1.449917,-0.1905 -0.529167,-0.79375 0.449792,-0.54504 -1.058333,0.0317 -0.529167,-0.6006 0.79375,-0.26458 0.264584,-0.47889 -0.264583,-0.50006 -0.08202,-0.0476 0.169333,-1.32292 -0.510646,-0.79375 0.195792,1.48696 -1.264708,0.39952 -0.500062,1.24354 1.00277,0.6694 -0.963084,-0.15875 -0.06879,0.97367 -1.500188,-0.14817 0.312208,0.64823 -0.312208,1.016 -0.992188,-0.16405 0.124354,0.48418 -0.09525,0.77787 -2.770188,-0.73289 0.833437,1.26471 -1.12448,0.99748 1.291167,1.54252 -2.823104,0.28575 -0.513291,-0.9816 -0.711729,-0.56621 -1.49225,0.17727 -0.637646,-1.43934 -0.658813,-0.0344 -1.137708,0.13229 -0.4445,-0.65352 0.05292,-0.67733 -1.113896,-0.0317 -0.211667,-1.13771 -1.087437,-0.24341 -0.740833,-0.19314 -0.341312,-1.00012 -0.656167,-0.0238 -0.632354,-0.59002 -0.902229,-1.05833 -0.669396,-0.5133 -0.288396,0.79375 -0.658813,0.93398 -0.447146,0.11377 -0.08467,0.52916 0.238125,0.40481 -1.158875,0.83079 0.677333,0.52916 -0.365125,0.98425 -1.177396,0.19579 1.177396,0.6641 -0.238125,0.84931 0.100542,-0.61648 -2.026708,0.16404 -1.129771,-0.96573 0.357188,-0.43656 -0.711729,-0.38629 -0.309562,-0.81756 0.486833,-0.71438 -1.058334,-0.13494 -0.978959,-0.80963 0.05556,-0.5662 1.084792,-0.30691 1.137709,-0.86518 -0.240771,-0.26459 -1.669521,-0.15346 -0.73025,-0.8308 0.529166,-0.6985 -1.322917,0.0979 -0.701146,-0.70908 0.193146,-0.12435 0.587375,-0.17198 0.510646,-0.45244 -1.688042,0.0582 -0.338667,-1.6801 -1.553104,-1.10331 -0.28575,0.24077 0.246062,0.80963 -0.09261,1.03188 -0.41275,-0.0132 -1.177395,0.0847 -0.452437,0.52916 1.283229,0.77259 -1.198563,-0.14287 -0.02381,1.2065 -1.852083,-0.0979 0.423334,0.79375 -0.325437,1.27265 -1.643063,-0.127 1.4605,1.46579 -0.976313,0.84402 0.367771,-0.10054 0.463021,-0.67998 -0.0291,-0.61383 -2.852208,0.11377 1.645709,-1.68805 0.235479,-2.11667 -2.058458,0.29633 -1.005416,-0.10319 -1.677458,-2.08227 0.751417,-1.25942 -3.635375,0.24606 0.185208,-2.286 -1.359958,-0.60325 -1.698625,0.0873 -0.955145,-1.56633 -0.39423,-0.0503 -1.611313,0.26458 -1.021292,-0.52917 1.322917,-0.52917 0.41275,-0.83873 -0.508,-0.8255 -0.142875,-0.0714 0.166687,-2.23838 -0.939271,-1.30175 0.460375,2.33098 -2.005542,0.95514 -0.735542,2.14842 1.820334,1.08743 -1.643062,-0.24078 -0.02381,1.65893 -2.561167,-0.12171 0.587375,1.05834 -0.439208,1.7489 -1.698625,-0.1905 0.264583,0.80698 -0.0926,1.32292 -3.73327,-0.4154 -1.185333,0.28839 -0.637645,1.63777 -1.923521,0.55562 -1.322917,-0.0952 -0.415396,1.35202 -0.687917,0.83608 -2.50825,-0.83609 -2.489729,0.63764 -2.780771,-1.1086 2.931583,-1.13506 -1.277938,-2.27277 2.537354,-3.41312 -1.354667,0.11642 0.243417,-3.06652 -0.777875,-0.0423 -1.344084,0.15611 -0.529167,-0.77258 0.113771,-0.83873 -1.344083,0.0688 -0.264583,-1.34409 -0.06879,-0.37041 -0.574146,0 -0.79375,-0.12435 0.513291,-1.96321 0.04498,-0.26458 -0.679979,-2.30187 -0.79375,-0.6059 -0.341313,0.93927 -0.777875,1.10595 -0.529167,0.12965 -0.100542,0.61119 0.280458,0.47361 0,0.43127 -1.201208,0.42333 -0.06085,0.81491 0,0.55828 -1.722438,0.48948 -0.15875,0.91282 0.219604,0.52916 -0.529167,0.40746 -0.836084,0.45508 0.05292,0.84667 1.754188,0.55563 -0.381,1.2991 -0.719666,0.0212 -0.727604,-0.26458 -0.407458,-0.84666 -0.418042,0 -0.717021,0.0265 -0.288396,-0.42863 0.0344,-0.44185 -0.73025,-0.0212 -0.140229,-0.74348 -0.690562,-0.18256 -0.529167,-0.082 -0.22225,-0.65616 -0.431271,-0.0159 -0.415396,-0.38629 -0.592667,-0.68792 -0.224895,-0.3466 -0.777875,1.14565 -0.264583,0.87577 -0.05292,0.20902 -0.566208,0.29633 -0.03175,0.44979 -0.02646,0.29898 -0.923396,0.29634 -0.08996,0.50536 0.116416,0.21696 -0.211667,0.26458 -0.367771,0.23812 -0.529167,0.17463 0.79375,0.37042 0.05292,0.62177 -1.180042,0.18786 0.608541,0.36513 -0.08996,0.67204 -1.444625,-0.0767 0.738188,0.52917 -0.740833,0.60855 1.399646,0.87048 0.161396,0.22225 -0.121708,0.81756 0.838729,0.45508 -0.129646,0.41275 -0.547688,0.36777 1.486958,-1.03452 -2.661708,-0.62442 -1.449917,-1.8706 2.701396,-1.63778 -2.947458,-0.87048 0.330729,-3.11944 -0.817562,-0.83079 -2.047875,0.43391 -0.846666,-1.91559 -0.873125,-0.0476 -1.508125,0.17463 -0.587375,-0.86783 0.127,-0.94456 -1.510771,0.0767 -0.283104,-1.50812 -2.526771,-0.42863 0.502708,-1.1139 -0.738188,-1.41817 -0.709083,0.10848 -1.031875,-2.67494 -1.531937,-0.89958 0.264583,0.69585 -1.293813,1.36525 0.06085,1.36525 0,0.48154 -1.346729,0.47625 -0.06615,0.91545 -0.01588,0.62442 -1.939396,0.55034 -0.179917,1.02659 0.232834,0.43656 -0.428625,0.56091 -0.748771,0.47889 -1.058333,0.35984 1.629834,0.75407 0.105834,1.26471 -2.344209,0.39159 1.262062,0.70644 -0.179917,1.36261 -3.148542,-0.0635 1.680104,0.98954 -1.502833,1.23295 0.04763,0.59796 1.322916,0.28311 1.280583,0.92869 -0.505354,0.77523 -2.749021,-0.1905 -0.79375,1.32292 -0.264583,0.68527 -2.272771,-0.40746 -1.770062,0.65087 0.822854,0.28311 1.404937,0.79375 0.288395,1.2065 a 1.4552083,1.4552083 0 0 0 -0.772583,0.26459 c -5.55625,-1.25413 3.767667,-2.4765 -2.727854,-3.83117 -0.264583,-1.0795 1.30175,-1.33615 1.613958,-2.20927 -0.677333,-1.25677 -3.119437,0.96044 -1.219729,-2.74902 -1.256771,-0.0662 -2.172229,0.26458 -0.846667,-1.24619 0.264584,-1.39171 -2.196041,0.21696 -0.407458,-2.17223 -0.113771,-0.6006 -0.931333,0 -1.272646,-0.20108 -0.793784,-0.56092 0.902195,-1.32292 0.624383,-1.70921 -1.256771,-0.045 -1.211792,-1.12977 -1.725083,-2.01083 -1.277938,-0.97632 -0.550334,1.51341 -1.256771,1.78329 -0.8519588,0.21431 -0.161396,0.98954 0.455083,0.76994 -0.01587,0.6932 -1.9420408,0.68527 -0.0979,1.32291 0.304271,0.71967 -1.4816658,0.39952 -1.2858748,1.07686 1.1350628,0.23548 1.5689788,1.23296 -0.05027,1.08743 -1.505479,0.51594 2.3442088,1.0848 0.153459,1.81769 -3.21998,0.50271 1.7409578,1.0795 -0.264584,1.95792 -4.661958,-0.0344 2.5294168,1.3626 -2.161646,1.778 0.06879,0.85725 1.891771,0.40481 1.852084,1.32292 -0.846663,1.16945 -3.836454,-0.39159 -1.156225,1.91822 -4.434417,-0.73289 1.68275,-1.60866 -2.280708,-2.47914 2.54,-3.41577 -1.352021,0.11377 0.243416,-3.06917 -0.775229,-0.0423 -1.341437,0.15611 -0.529166,-0.77258 0.111125,-0.83873 -1.34673,0.0688 -0.264584,-1.34144 -0.07144,-0.37306 -0.576791,0 -0.79375,-0.12435 0.513292,-1.9685 0.05556,-0.26459 -0.679979,-2.30188 -0.79375,-0.60854 -0.341312,0.93663 -0.775229,1.10331 -0.529167,0.12965 -0.103188,0.61119 0.264583,0.47625 0,0.42863 -1.201208,0.42069 -0.05821,0.81492 -0.01587,0.55563 -1.7224374,0.48683 -0.161396,0.91281 0.22225,0.52917 -0.529166,0.40746 -0.833437,0.45244 -0.108479,0.76994 1.852083,0.5715 -0.3175002,1.25148 1.0133542,-0.79375 -0.873125,-0.79375 -0.2460625,-1.4896 0.8149167,-1.1139 -3.2940625,-0.21696 -0.75141672,-1.82034 0.38364592,-0.10318 0.93397922,-0.21696 0.95250002,-0.67204 -0.1878544,-0.49477 -1.79916692,0.0847 -1.51077112,-0.87048 0.90752082,-0.68262 0.4630208,-1.02394 -0.4894791,-0.77787 -0.2910417,-0.34396 -0.050271,31.85848 -0.060854,40.87812 H 123.61728 c 1.56633,-1.19327 0.98425,-2.74902 -2.41035,-4.7625 z M 2.7053462,263.55341 c -0.359833,0.0291 -0.8069793,-0.23548 -0.7937502,-0.59531 0.1587502,0.22754 0.9710212,0.127 0.7937502,0.59531 z m 28.4347708,4.8551 c 0.03175,0 0.05821,0.0265 0.08731,0.037 0.677334,0.54769 -0.883708,0.48684 -0.08731,-0.0397 z m -0.502709,-0.70643 c -0.08467,-0.32809 0.34925,-0.43657 0.497417,-0.66146 1.574271,0.508 0.441854,1.14035 -0.497417,0.65881 z m 20.404667,8.40316 c 0.03175,-0.19314 0.428625,-0.58737 0.552979,-0.32279 0.124354,0.26458 -0.328083,0.40217 -0.552979,0.32015 z m -0.129646,-0.62971 c -0.915458,-0.1561 -0.01323,-0.83079 0.391584,-1.02129 1.476375,0.47625 -0.433917,0.53711 -0.391584,1.01865 z m 17.412229,4.51379 a 0.6746875,0.6746875 0 0 1 0.198438,0.11378 c -0.09525,0 -0.185208,-0.005 -0.198438,-0.11642 z m 0.627063,-1.05833 c -0.418042,-0.26458 -1.010708,-0.26458 -1.444625,-0.46831 -1.27,-1.98438 4.206875,-0.11377 1.444625,0.46831 z m 34.327039,9.75783 a 0.18520833,0.18520833 0 0 1 0.10848,-0.22489 c -0.0926,0.10054 0.0212,0.48948 -0.10848,0.22489 z m 10.45104,3.048 h 0.39688 c -0.0397,0.16669 -0.26459,0.003 -0.39159,0.008 z"
       style="fill:url(#grad8);stroke-width:0.26458332"
       inkscape:connector-curvature="0" />
    <path
       id="h1-1"
       d="m 212.02459,297.51781 c -1.49489,-0.0503 2.88925,-48.30498 -1.89706,-42.8625 -0.3466,-0.77259 2.61408,-1.76477 0.09,-1.55311 -1.12183,-0.11641 0.26458,-1.05833 -0.45508,-1.27 -0.65882,-0.11112 0.49212,-1.14564 -0.58209,-0.89693 -2.31246,-0.35719 1.95792,-1.47638 0.0344,-1.56898 -0.30692,0.037 -0.70379,-0.21961 -0.56886,-0.49477 1.48696,-1.18005 -1.19591,-0.082 -0.47889,-1.05834 1.07421,-0.42068 0.33073,-0.68527 -0.41011,-0.66675 -0.11377,-0.0582 0.13494,-1.8071 -0.7567,-1.05833 0.39158,1.96056 -1.68275,0.67733 -0.59532,1.73567 1.35996,0.79375 -1.32291,-0.0662 -0.0212,1.33879 -2.0664,-0.0952 0.47625,0.86254 -0.3519,1.41287 -1.37319,-0.15346 0.20373,0.65088 -0.0767,1.07157 -3.85762,-0.80698 1.24884,1.66952 -1.46314,1.44462 -0.4498,0.4736 1.37318,0.75671 0.32279,1.23031 -2.38125,-0.61648 -2.01613,0.41011 -0.23019,1.08479 -0.2249,0.86784 -1.89706,0.16669 -1.70921,1.21973 a 0.5715,0.5715 0 0 0 -0.54239,-0.38629 c -1.03717,-0.37571 0.59531,-0.52916 0.0847,-0.86254 -0.26458,-0.0317 -0.65881,0.17198 -0.83608,-0.082 1.32292,-0.94985 -1.6801,-0.0767 0.24871,-1.13771 -1.52136,-0.0794 0.72496,-0.70379 -0.762,-0.62706 -0.71967,-0.31486 1.12183,-0.49742 -0.0926,-0.69056 -0.77258,-0.26459 0.58473,-0.46038 0.0529,-0.6403 -0.1614,0.0397 -0.49742,-0.0238 -0.37835,-0.24606 0.85989,-0.21696 -0.0688,-0.21431 -0.0926,-0.52916 0.55034,-0.15875 0.0212,-0.24871 -0.0344,-0.46567 0.52916,0.28575 -0.0556,-1.27794 -0.28311,-0.90223 -0.71173,0.79375 -0.0423,1.21179 -0.83608,1.38377 0.5715,0.64558 -0.14817,0.34925 -0.14552,0.76729 0.43921,0.46831 0.13229,0.43656 -0.29898,0.43921 0.54769,0.93927 0.0529,0.65088 -0.43127,0.97102 0.79375,0.70908 0.62971,0.83608 -0.29104,1.09802 1.68804,1.8124 -1.397,0.40217 -0.0714,1.5875 a 14.488583,14.488583 0 0 1 -1.37848,0.79375 c -1.55575,-0.48154 1.5531,-0.86519 -0.76729,-1.30439 1.32291,-1.71715 -0.7329,-0.1614 0.13758,-1.75155 -0.43127,0 -0.73554,0.0265 -0.29898,-0.44185 0,-0.4154 -0.71173,-0.12435 -0.14287,-0.76465 -0.67998,-0.16933 -0.54769,-0.127 -0.23019,-0.67468 -0.44185,-0.0159 -0.42598,-0.39952 -0.60854,-0.70909 -0.46302,-0.29104 -0.65352,1.54517 -0.3175,1.36525 -1.02659,0.62707 0.73554,0.57415 -0.56621,0.78052 -0.20108,0.29898 0.8599,0.32809 0.15081,0.62442 -1.21708,0.19315 0.62706,0.37571 -0.0926,0.69321 -1.32292,-0.16669 0.56091,0.67204 -0.70909,0.57415 -1.5875,-0.3519 0.508,-0.79375 -0.93927,-1.09538 0.92869,-1.16152 -0.5027,-0.19844 0.10055,-1.27794 -0.31486,0 -0.52917,0.0212 -0.21696,-0.32014 0,-0.30427 -0.52917,-0.0953 -0.10584,-0.56092 -0.51064,-0.19315 -0.17991,-0.51065 -0.61118,-1.01071 -0.17992,-0.24341 -0.59002,0.84402 -0.20638,0.65881 -0.045,0.16405 -0.42333,0.21961 -0.0265,0.33867 -0.0185,0.22754 -0.69056,0.21961 -0.0661,0.381 0.0873,0.1614 -0.15875,0.20902 -0.26459,0.17727 -0.38629,0.13494 0.6059,0.28046 0.0397,0.46831 -0.88635,0.14288 0.45773,0.26459 -0.0661,0.50536 -0.92605,-0.0767 0.39158,0.42598 -0.55563,0.45773 1.16152,0.85196 -2.53735,0.13758 0,-1.48696 -0.89429,-0.64558 -1.80975,0.0847 -0.79375,-1.77271 -0.79375,0 -1.34673,0.0503 -0.54504,-0.79375 0.0635,-0.82814 -1.3679,-0.0503 -0.26458,-1.39964 -1.82563,-0.40746 0.2196,-0.26459 -1.5293,-2.52678 -0.82285,-0.635 -0.35189,0.97632 -0.80962,1.1483 -0.54769,0.13758 -0.10583,0.63764 0.29369,0.49741 -0.10848,0.41011 -1.05834,0.54504 -0.0635,0.84932 -0.045,0.56356 -1.73302,0.54768 -0.16669,0.94985 0.21431,0.40481 -0.39688,0.52917 -0.69321,0.4445 -0.97102,0.33073 1.51077,0.70115 0.0979,1.1721 -2.21986,0.3519 1.14564,0.68263 -0.16669,1.26207 -2.72256,-0.14288 1.38906,1.00012 -1.39436,1.14564 0.045,0.55298 1.21973,0.26459 1.18798,0.8599 -0.49212,0.73554 -2.57439,-0.17727 -0.73289,1.21708 -0.24606,0.635 -2.08756,-0.37571 -1.65894,0.59002 0.79375,0.26459 1.28588,0.79375 0.30163,1.11654 -2.03994,0.40217 -1.34409,3.38932 -2.64584,4.77838 -1.34937,0.0159 -0.41275,-0.78052 0.0423,-1.26471 -0.64559,-0.42333 -1.29646,-0.0556 -0.57415,-1.29117 -0.57415,0 -0.97896,0.037 -0.39688,-0.58473 0,-0.55297 -0.9472,-0.16668 -0.1905,-1.01864 -0.90487,-0.2249 -0.7276,-0.16669 -0.30427,-0.89694 -0.59002,-0.0212 -0.56885,-0.52917 -0.80962,-0.94192 -0.60061,-0.46302 -0.26458,0.70909 -0.59002,0.83609 -0.39952,0.10054 -0.0767,0.46566 0.21431,0.35983 -0.0794,0.29898 -0.77258,0.39952 -0.0476,0.61913 -0.0318,0.4101 -1.26207,0.39952 -0.11907,0.6932 0.15611,0.29634 -0.29104,0.37836 -0.508,0.3228 -0.70379,0.24077 1.10067,0.51064 0.0741,0.85195 -1.61661,0.26459 0.83343,0.50007 -0.12171,0.92075 -1.97909,-0.10318 1.00541,0.72761 -1.016,0.83344 1.92881,1.23825 0.19314,0.33602 -0.16669,1.11919 1.22502,0.73025 -0.28575,0.40746 -0.75142,0.58737 2.06111,-1.90235 -1.10331,-0.26458 0.20638,-2.30187 -0.61913,0 -1.05833,0.0397 -0.42863,-0.63235 0.0503,-0.64823 -1.05833,-0.0397 -0.20637,-1.09538 -1.85208,-0.36512 0.32544,-0.69321 -0.52917,-1.03187 -0.51329,0.0794 -0.75141,-1.94469 -1.11654,-0.65353 0.20108,0.50536 -0.93927,0.99484 0.045,0.99219 -0.082,0.32279 -0.83079,0.42863 -0.0476,0.66675 -0.037,0.44186 -1.35995,0.42863 -0.13229,0.74613 0.16934,0.3175 -0.31221,0.40746 -0.52916,0.34925 -0.762,0.26458 1.18533,0.54768 0.0767,0.9181 -1.74096,0.27781 0.89958,0.52917 -0.1323,0.98954 -2.11666,-0.11112 1.08744,0.79375 -1.09273,0.89959 2.80194,1.66687 -1.5875,0.15081 0.35719,1.62718 -0.26458,0.36513 -0.83608,0.0714 -1.19591,0.11907 -0.11378,1.0742 1.87325,0.6297 -0.89165,1.61925 -1.51077,0.127 1.22502,-1.1774 -0.40217,-0.92869 -0.4736,-0.0608 -0.0265,-0.26458 -0.33602,-0.97367 -0.24871,-0.65352 -1.33879,-0.0397 0.082,-1.02923 -0.61912,-0.22489 -0.72231,-0.0423 -0.42862,-0.70643 -0.17727,-0.0238 -0.72761,0.11641 -0.46302,-0.24342 0.6006,-0.23548 0.18521,-0.38365 -0.22754,-0.37306 -0.0635,-0.0317 0.0767,-1.00807 -0.42334,-0.58738 0.24871,0.93133 -0.88106,0.48154 -0.33337,0.97102 0.75935,0.43656 -0.73819,-0.037 0,0.74613 -1.15094,-0.0503 0.26458,0.48418 -0.19844,0.79375 -0.76465,-0.0847 0.11642,0.36248 -0.0423,0.59796 -1.94734,-0.44186 0.59531,0.97102 -0.81757,0.80697 -0.26458,0.26459 0.7673,0.42334 0.18257,0.68792 -1.24884,-0.35454 -1.09273,0.26458 -0.12965,0.6059 -0.0979,0.45508 -1.38377,0.17198 -0.84137,0.79375 -0.74613,0.26458 -2.11667,0.36777 -1.13507,-0.7329 -1.0795,-0.17198 -0.85989,-2.3495 -1.49754,-0.11112 -0.42862,0.10583 -0.082,0.49477 0.22754,0.38364 -0.0847,0.32015 -0.82814,0.42598 -0.0503,0.66146 -0.0344,0.44185 -1.34937,0.42863 -0.12964,0.74083 0.16933,0.3175 -0.30957,0.40482 -0.52917,0.34661 -0.75671,0.26458 1.1774,0.54769 0.0767,0.91281 -1.72773,0.26458 0.89429,0.52917 -0.12965,0.98425 -2.11666,-0.11112 1.07686,0.77788 -1.08479,0.89165 2.78077,1.65629 -1.57427,0.15081 0.3519,1.61925 -0.24871,0.35983 -0.83079,0.0688 -1.18798,0.11641 -0.72761,0.48684 1.5875,0.69321 0.11906,1.22502 -0.4154,-0.0582 -1.02658,0.48419 -0.52917,0.88636 -0.28839,0.32543 -1.43404,0.60854 -0.48948,0.0397 -0.83872,-0.32544 -0.41539,-0.21167 -0.21166,-0.66675 -1.10331,-0.0132 0.40746,-0.37306 -0.30427,-0.49742 -0.52917,-0.21431 0.41539,-0.16669 -0.21167,-0.56885 0.58738,0 -0.0926,-0.29104 0.0265,-0.59532 -0.21961,-0.77258 -0.35983,0.43921 -0.66675,0.39159 -0.49477,0.21696 0.80962,0.44979 -0.32015,0.61912 0.48948,0.55298 -0.127,0.29634 -0.12435,0.65617 0.37571,0.39952 0.11377,0.37306 -0.26458,0.37571 0.4392,0.6985 0.0238,0.59796 -0.37042,0.83344 0.67998,0.60589 0.52917,0.71437 -0.24871,0.94191 1.69069,1.40759 -3.56394,2.04523 -0.82815,-0.20637 -0.75141,-0.49213 -1.51077,-0.0635 -0.66939,-1.50284 -0.6694,0 -1.13771,0.0423 -0.46038,-0.68262 0.0529,-0.6985 -1.15887,-0.0423 -0.22489,-1.18533 -1.46315,-0.26459 0.10319,-0.40746 -1.29646,-2.14048 -0.69585,-0.52917 -0.29898,0.8255 -0.68527,0.97366 -0.46302,0.11642 -0.09,0.52917 0.24871,0.42069 -0.09,0.3466 -0.89959,0.46302 -0.0529,0.71967 -0.0397,0.47625 -1.47108,0.46302 -0.14287,0.79375 0.18256,0.34396 -0.33603,0.44185 -0.58738,0.37835 -0.82285,0.28046 1.28058,0.59267 0.0847,0.99219 -1.88119,0.29898 0.97102,0.57944 -0.14288,1.07156 -2.30187,-0.12171 1.17475,0.84402 -1.18004,0.96838 0.037,0.46831 1.03188,0.22225 1.00542,0.73025 -2.93159,0.64823 1.22237,1.27529 -1.91294,1.15887 -0.79375,0.52917 1.7145,0.79375 0.14287,1.32292 -5.17525,4.33916 -10.58333,10.69181 -17.89906,10.56216 -67.653956,9.9695 80.15817,4.69371 79.72954,5.90815 z m -18.8886,-41.76977 c 0.48154,-0.30957 1.2991,0.61648 0.23019,0.42068 -0.14817,-0.09 -0.46832,-0.24341 -0.23019,-0.42068 z m -3.04535,-0.11113 c 0.32279,-0.25135 0.18256,0.0476 -0.0476,0.11113 -0.11377,0.0212 -0.0185,-0.0503 0.0476,-0.11113 z m -14.48065,8.01423 a 1.254125,1.254125 0 0 0 0.41275,0.19315 c -0.17992,0.037 -0.52123,-0.20902 -0.41275,-0.19315 z"
       style="fill:url(#grad9);stroke-width:0.26458332"
       inkscape:connector-curvature="0" />
  </g>
</svg>
