<?xml version="1.0" encoding="UTF-8" standalone="no"?>
<svg
   xmlns:dc="http://purl.org/dc/elements/1.1/"
   xmlns:cc="http://creativecommons.org/ns#"
   xmlns:rdf="http://www.w3.org/1999/02/22-rdf-syntax-ns#"
   xmlns:svg="http://www.w3.org/2000/svg"
   xmlns="http://www.w3.org/2000/svg"
   xmlns:xlink="http://www.w3.org/1999/xlink"
   xmlns:sodipodi="http://sodipodi.sourceforge.net/DTD/sodipodi-0.dtd"
   xmlns:inkscape="http://www.inkscape.org/namespaces/inkscape"
   viewBox="0 0 750 500"
   preserveAspectRatio="xMidYMax slice"
   version="1.1"
   id="svg3816"
   sodipodi:docname="4.svg"
   inkscape:version="0.92.1 r15371">
  <metadata
     id="metadata3820">
    <rdf:RDF>
      <cc:Work
         rdf:about="">
        <dc:format>image/svg+xml</dc:format>
        <dc:type
           rdf:resource="http://purl.org/dc/dcmitype/StillImage" />
        <dc:title></dc:title>
      </cc:Work>
    </rdf:RDF>
  </metadata>
  <sodipodi:namedview
     pagecolor="#ffffff"
     bordercolor="#666666"
     borderopacity="1"
     objecttolerance="10"
     gridtolerance="10"
     guidetolerance="10"
     inkscape:pageopacity="0"
     inkscape:pageshadow="2"
     inkscape:window-width="1366"
     inkscape:window-height="705"
     id="namedview3818"
     showgrid="false"
     inkscape:zoom="1.072"
     inkscape:cx="374.05474"
     inkscape:cy="74.766067"
     inkscape:window-x="-8"
     inkscape:window-y="-8"
     inkscape:window-maximized="1"
     inkscape:current-layer="hills1" />
  <defs
     id="defs3802">
    <!-- Scene 1 Gradient -->
    <linearGradient
       id="grad1"
       x1="-154.32"
       y1="263.27"
       x2="-154.32"
       y2="374.3"
       gradientTransform="matrix(-1, 0, 0, 1.36, 231.36, -100.14)"
       gradientUnits="userSpaceOnUse">
      <stop
         offset="0.07"
         stop-color="#9c536b"
         id="stop3680" />
      <stop
         offset="0.98"
         stop-color="#d98981"
         id="stop3682" />
    </linearGradient>
    <radialGradient
       id="bg_grad"
       cx="375"
       cy="-35"
       r="318.69"
       gradientUnits="userSpaceOnUse">
      <stop
         offset="0.1"
         stop-color="#F5C54E"
         id="sun" />
      <stop
         offset="0.1"
         stop-color="#FFDBA6"
         id="stop3686" />
      <stop
         offset="0.0"
         stop-color="#F7BB93"
         id="stop3688" />
      <stop
         offset="0.0"
         stop-color="#F2995E"
         id="stop3690" />
      <stop
         offset="0.0"
         stop-color="#f07560"
         id="stop3692" />
      <stop
         offset="0.8"
         stop-color="#FFAB93"
         id="stop3694" />
    </radialGradient>
    <linearGradient
       id="grad2"
       x1="242.5"
       y1="356.25"
       x2="750"
       y2="356.25"
       gradientUnits="userSpaceOnUse">
      <stop
         offset="0"
         stop-color="#fbbd93"
         id="stop3697" />
      <stop
         offset="0.98"
         stop-color="#c46976"
         id="stop3699" />
    </linearGradient>
    <linearGradient
       id="grad3"
       x1="467.26"
       y1="500"
       x2="467.26"
       y2="225.47"
       gradientUnits="userSpaceOnUse"
       gradientTransform="translate(-74.626866,556.90299)">
      <stop
         offset="0.01"
         stop-color="#ffb8bd"
         id="stop3702" />
      <stop
         offset="1"
         stop-color="#914d64"
         id="stop3704" />
    </linearGradient>
    <linearGradient
       id="grad4"
       x1="216.56"
       y1="227.64"
       x2="191.14"
       y2="600.82"
       gradientUnits="userSpaceOnUse"
       gradientTransform="translate(-49.87716,237.56866)">
      <stop
         offset="0"
         stop-color="#70375a"
         id="stop3707" />
      <stop
         offset="0.96"
         stop-color="#8a6e95"
         id="stop3709" />
    </linearGradient>
    <linearGradient
       id="grad5"
       x1="1"
       y1="413.12"
       x2="340.58"
       y2="413.12"
       gradientUnits="userSpaceOnUse"
       gradientTransform="translate(-87.607168,269.81866)">
      <stop
         offset="0"
         stop-color="#433d6c"
         id="stop3712" />
      <stop
         offset="1"
         stop-color="#392e54"
         id="stop3714" />
    </linearGradient>
    <linearGradient
       id="grad6"
       x1="454.13"
       y1="295.96"
       x2="454.13"
       y2="498.93"
       gradientUnits="userSpaceOnUse"
       gradientTransform="translate(-135.57716,242.82866)">
      <stop
         offset="0"
         stop-color="#2b2850"
         id="stop3717" />
      <stop
         offset="0.99"
         stop-color="#563a6a"
         id="stop3719" />
    </linearGradient>
    <linearGradient
       id="grad7"
       x1="434.38"
       y1="391.96"
       x2="474.27"
       y2="516.33"
       gradientUnits="userSpaceOnUse"
       gradientTransform="translate(-95.22716,244.88866)">
      <stop
         offset="0.3"
         stop-color="#1c1b38"
         id="stop3722" />
      <stop
         offset="0.38"
         stop-color="#201e3e"
         id="stop3724" />
      <stop
         offset="0.9"
         stop-color="#383263"
         id="stop3726" />
    </linearGradient>
    <linearGradient
       id="grad8"
       x1="259.18"
       y1="335.54"
       x2="213.65"
       y2="500.39"
       gradientUnits="userSpaceOnUse"
       gradientTransform="translate(-124.52716,224.26866)">
      <stop
         offset="0"
         stop-color="#0e0a1a"
         id="stop3729" />
      <stop
         offset="0.3"
         stop-color="#100d1f"
         id="stop3731" />
      <stop
         offset="0.64"
         stop-color="#17142c"
         id="stop3733" />
      <stop
         offset="0.95"
         stop-color="#201f3f"
         id="stop3735" />
    </linearGradient>
    <linearGradient
       id="grad9"
       x1="508.16"
       y1="321.39"
       x2="726.97"
       y2="623.69"
       gradientUnits="userSpaceOnUse"
       gradientTransform="translate(-69.817164,220.61866)">
      <stop
         offset="0.01"
         stop-color="#120e22"
         id="stop3738" />
      <stop
         offset="1"
         stop-color="#221d42"
         id="stop3740" />
    </linearGradient>
    <!-- Scene2 Gradient -->
    <linearGradient
       id="lg4"
       x1="641.98"
       y1="274.9"
       x2="638.02"
       y2="334.36"
       gradientUnits="userSpaceOnUse">
      <stop
         offset="0"
         stop-color="#2c2c50"
         id="stop3743" />
      <stop
         offset="1"
         stop-color="#434375"
         id="stop3745" />
    </linearGradient>
    <linearGradient
       id="lg5"
       x1="172.37"
       y1="286.02"
       x2="171.33"
       y2="343.08"
       xlink:href="#lg4" />
    <linearGradient
       id="lg6"
       x1="505.71"
       y1="261.55"
       x2="504.61"
       y2="322.08"
       xlink:href="#lg4" />
    <linearGradient
       id="lg7"
       x1="301.32"
       y1="260.99"
       x2="295.66"
       y2="345.9"
       xlink:href="#lg4" />
    <linearGradient
       id="lg8"
       x1="375.59"
       y1="381.01"
       x2="373.3"
       y2="507.08"
       xlink:href="#lg4" />
    <!-- Scene3 Gradient -->
    <radialGradient
       id="bg2-grad"
       cx="365.22"
       cy="500"
       r="631.74"
       gradientTransform="translate(750 552.6) rotate(180) scale(1 1.11)"
       gradientUnits="userSpaceOnUse">
      <stop
         offset="0"
         stop-color="hsla(349, 94%, 75%, 1)"
         id="stop3752" />
      <stop
         offset="0.12"
         stop-color="hsla(342, 49%, 62%, 1)"
         id="stop3754" />
      <stop
         offset="0.18"
         stop-color="hsla(328, 37%, 56%, 1)"
         id="stop3756" />
      <stop
         offset="0.33"
         stop-color="hsla(281, 33%, 48%, 1)"
         id="stop3758" />
      <stop
         offset="0.41"
         stop-color="hsla(268, 38%, 48%, 1)"
         id="stop3760" />
      <stop
         offset="0.45"
         stop-color="hsla(266, 38%, 43%, 1)"
         id="stop3762" />
      <stop
         offset="0.55"
         stop-color="hsla(261, 37%, 32%, 1)"
         id="stop3764" />
      <stop
         offset="0.64"
         stop-color="hsla(253, 36%, 24%, 1)"
         id="stop3766" />
      <stop
         offset="0.72"
         stop-color="hsla(244, 33%, 19%, 1)"
         id="stop3768" />
      <stop
         offset="0.78"
         stop-color="hsla(240, 33%, 17%, 1)"
         id="stop3770" />
    </radialGradient>
    <radialGradient
       id="fstar-grad"
       cx="1362.39"
       cy="-53.7"
       r="39.39"
       gradientTransform="matrix(0.89, -0.45, -0.45, -0.89, -473.7, 640.57)"
       gradientUnits="userSpaceOnUse">
      <stop
         offset="0"
         stop-color="#fff"
         id="stop3773" />
      <stop
         offset="0.06"
         stop-color="#fff"
         stop-opacity="0.8"
         id="stop3775" />
      <stop
         offset="0.12"
         stop-color="#fff"
         stop-opacity="0.62"
         id="stop3777" />
      <stop
         offset="0.19"
         stop-color="#fff"
         stop-opacity="0.45"
         id="stop3779" />
      <stop
         offset="0.26"
         stop-color="#fff"
         stop-opacity="0.31"
         id="stop3781" />
      <stop
         offset="0.33"
         stop-color="#fff"
         stop-opacity="0.2"
         id="stop3783" />
      <stop
         offset="0.41"
         stop-color="#fff"
         stop-opacity="0.11"
         id="stop3785" />
      <stop
         offset="0.49"
         stop-color="#fff"
         stop-opacity="0.05"
         id="stop3787" />
      <stop
         offset="0.59"
         stop-color="#fff"
         stop-opacity="0.01"
         id="stop3789" />
      <stop
         offset="0.72"
         stop-color="#fff"
         stop-opacity="0"
         id="stop3791" />
    </radialGradient>
    <linearGradient
       id="linear-gradient"
       x1="472"
       y1="461.56"
       x2="872.58"
       y2="461.56"
       gradientUnits="userSpaceOnUse">
      <stop
         offset="0"
         stop-color="#fd75a8"
         id="stop3794" />
      <stop
         offset="1"
         stop-color="#5a2d81"
         id="stop3796" />
    </linearGradient>
    <linearGradient
       id="linear-gradient-2"
       x1="214.61"
       y1="508.49"
       x2="166.09"
       y2="361.12"
       xlink:href="#linear-gradient" />
    <linearGradient
       id="linear-gradient-3"
       x1="57.65"
       y1="508.01"
       x2="448.08"
       y2="508.01"
       xlink:href="#linear-gradient" />
    <linearGradient
       id="linear-gradient-4"
       x1="193.48"
       y1="508.3"
       x2="761.05"
       y2="508.3"
       xlink:href="#linear-gradient" />
  </defs>
  <!-- SCENE 1 -->
  <g
     id="scene1">
    <g
       id="hills1">
      <path
         id="h1-9"
         d="M696.36,409H75V335.47c10.19-.52,20.5-.36,30.05-3.65,8.11-2.8,15.84-8.49,23.78-11.33s18.18,1.84,25.36-4.85C165,305.56,172,289.79,186.71,292.8c6.21,1.27,12.09,3.66,18.43.84,6-2.65,9.73-9.46,14.69-13.54,2.87-2.35,6.42-3.2,9.35-5.49,1.65-1.28,5.45-6.37,7-6.92,7.94-2.93,10.34,2.69,18.56-3.47,6.45-4.84,8.52-8.21,15.45-5,5,2.35,11.89,10.09,16,15.37C294.9,286,302,297.77,312.71,307.53c11.62,10.63,21.59,9.37,34.67,5.83,16.12-4.37,18.32,9.06,32.24,15.28,7.45,3.32,13.23-1.7,19.6-2.08,3.64-.22,5.85,2.12,9.37,1.82,3.12-.27,4.08-4.44,8.33-3,7.32,12.31,15.75,20,28.21,20.59,14.32.7,27.12.76,39.73-4.94A145.24,145.24,0,0,0,502.11,332c8.71-5.36,11.22-2.82,19.35,1.5,11.66,6.21,25.31,1.08,36.56,9.18,5.53,4,8.36,12.23,14.64,14.79,4.86,2,15.59.38,20.4-1.18,13.47-4.38,21.52-16.59,36.56-17.33,13.57-.67,25.19-4.17,39.11-2.31,10.91,1.46,18.72-.1,27.63-2.61Z"
         fill="url(#grad1)" />
      <path
         id="h1-8"
         d="M750,500V212.49a19.09,19.09,0,0,0-11.54,8.17c-2.21,3.35-4.39,7.9-7.92,7.69-1.44-.08-2.78-1-4.23-1.08-5.12-.2-7.87,10.11-12.84,8.66a2.7,2.7,0,0,0-2.57-3.34c-1.49.1-2.72,1.38-3.77,2.67a46.94,46.94,0,0,0-7.7,14c-1.76-6-8.53-7.93-13.43-5.51s-8.31,7.76-11.48,12.87l-17.31,27.92c-4.54,7.33-11.47,15.57-18.52,12.15-3.38-1.64-5.76-5.76-9.32-6.73s-7.55,1.64-11.18.48c-5.45-1.76-8.37-11.36-14-10.4-3.13.54-5.93,4.55-8.87,3.14-1.52-.73-2.44-2.76-4-3.36s-3.32.52-5,1.13c-7.4,2.73-14.16-5.41-21.27-9.08-12.35-6.38-26.85,1.31-36.59,12.45-3.1,3.54-6,7.5-9.78,9.89-3.22,2-6.88,2.8-10.48,3.54L480,303.58c-15,3.07-30.14,6.2-44.07,13.54-6.63,3.48-13,7.91-19.94,10.16-10.83,3.5-22.26,1.5-33.47,1.18-9.18-.27-102.2,122.09-140,171.54Z"
         fill="url(#grad2)" />
      <path
         id="h1-7"
         d="m 675.16313,1056.903 0.21,-260.88001 c -0.58,-0.62 -1.15,-1.25 -1.74,-1.87 -5.67,-5.95 -12.57,-12.05 -20.78,-11.77 -8.21,0.28 -15.44,7.12 -23.74,6.87 -7.55,-0.23 -14.09,-6.33 -21.65,-6.11 -5.79,0.17 -10.74,4 -15.29,7.6 -27.02,21.36 -337.91,189.33 -482.28,266.16001 z"
         style="fill:url(#grad3)"
         inkscape:connector-curvature="0" />
      <path
         id="h1-6"
         d="m -49.87716,648.23866 v 82.33 h 412.06 c -35.38,-101.16 -98.42,-78 -131.23,-117.2 -32.36,-10.29 -64.31,-17.76 -94,-31.31 a 5.83,5.83 0 0 1 -0.41,-1 7.21,7.21 0 0 1 -3.62,0.65 c -0.21,-1.41 -0.42,-2.83 -0.64,-4.24 -2.79,0.75 -0.89,3.32 -3.9,3.95 l -1.37,-1.1 a 9.26,9.26 0 0 0 -2.34,1 h 0.12 -0.14 v 0 l -0.92,-0.27 0.07,0.15 a 23.67,23.67 0 0 1 -6.55,-2.05 l 6.48,1.9 c -1.55,-3.22 1.78,-7.31 -3.91,-7.15 -0.21,-1.94 -0.43,-3.88 -0.64,-5.82 a 11.45,11.45 0 0 0 -3.47,3.65 l -0.93,-1.37 c -1.28,1.74 -1.15,5 -4.08,2.84 l -1,0.27 c -0.33,-2.48 -0.76,-5.65 -4,-4.32 a 8.17,8.17 0 0 0 -0.7,-4.34 l -4.11,3.91 c -0.6,-0.27 -1.21,-0.5 -1.82,-0.74 a 12.42,12.42 0 0 1 -1.26,-2.53 h -1.37 a 7.91,7.91 0 0 0 -1,-4.51 18.65,18.65 0 0 0 -2.83,1.73 l 1.17,-7.63 c -3.59,0.35 -3.37,4.37 -5.21,6.67 -0.05,-1.15 -0.09,-2.3 -0.14,-3.45 -1.34,1.72 -1.11,5.49 -4.13,4.87 v -3.4 c -2.61,2.44 -0.21,7.7 -5.37,5.82 a 7.46,7.46 0 0 0 0.48,-5.37 l -2,4.83 c -6.31,-4.21 -9.12,-12.77 -16.39,-16.25 -0.1,-0.77 -0.21,-1.53 -0.31,-2.3 a 5.08,5.08 0 0 0 -0.88,1.59 35.35,35.35 0 0 0 -8.44,-3.48 c -0.71,-1.26 -2.37,-2.1 -3.57,-1.32 q -0.85,-7.06 -1.7,-14.12 a 46.56,46.56 0 0 0 -2.74,10.63 l -1.17,-3 a 15.46,15.46 0 0 0 -0.45,6.63 c -1.5,0 -3,0.08 -4.53,0.08 -0.53,-2.47 -0.42,-9.91 -4.23,-5.49 a 44.26,44.26 0 0 0 -1.56,-10.41 l -4,13.74 a 44,44 0 0 1 -3,-8.85 l -1.35,0.55 a 39.63,39.63 0 0 0 -1.85,-10.68 47.8,47.8 0 0 0 -2.47,5.58 l -0.24,-19.43 c -4.18,4.6 -2.3,13 -3.9,18.92 -0.26,-2.83 -0.51,-5.66 -0.77,-8.49 -0.51,4.12 -0.73,8.28 -1.38,12.38 -0.64,-0.11 -1.28,-0.19 -1.93,-0.26 l -0.43,-6.63 a 32.55,32.55 0 0 0 -0.91,6.45 c -1.11,-0.09 -2.24,-0.15 -3.37,-0.19 -0.12,-1 -0.26,-1.94 -0.45,-2.9 -0.08,1 -0.16,1.91 -0.25,2.87 -19.76,-2.69 -34.56,-16.84 -55,-21.54 z"
         style="fill:url(#grad4)"
         inkscape:connector-curvature="0" />
      <path
         id="h1-5"
         d="m 212.71284,695.44866 c -7.78,-5.38 -17.22,-7.93 -25.57,-12.43 -14.59,-7.87 -25.69,-21.55 -39.79,-29.71 l -0.42,-3.55 a 7,7 0 0 0 -1.09,2.71 51.13,51.13 0 0 0 -7.74,-3.43 7.19,7.19 0 0 0 -0.31,-1.19 c -0.62,-1.64 -2.43,-2.82 -3.72,-1.84 q -0.84,-8.26 -1.69,-16.51 a 62.62,62.62 0 0 0 -2.73,12.43 l -1.17,-3.48 a 19.73,19.73 0 0 0 -0.56,6.46 c 0.05,0.58 0.12,1.19 0.13,1.79 -1.51,-0.21 -3,-0.39 -4.55,-0.53 q -0.42,-3 -0.82,-6 a 2.73,2.73 0 0 0 -0.59,-1.63 c -0.88,-0.85 -2.11,0.31 -2.8,1.37 a 60,60 0 0 0 -1.47,-12.2 q -2,8 -4,16.06 a 58.3,58.3 0 0 1 -3,-10.35 l -1.34,0.65 a 53.76,53.76 0 0 0 -1.85,-12.48 59.91,59.91 0 0 0 -2.46,6.52 l -0.24,-22.71 c -1.52,0.77 -1.93,3 -2.12,5 l -1.77,17.15 -0.78,-9.93 -1.200004,13.51 c -0.13,1.39 -0.82,3.26 -2,2.83 -0.2,-3.29 -0.41,-6.58 -0.61,-9.86 a 44.38,44.38 0 0 0 -0.86,12.34 18.5,18.5 0 0 1 -0.07,5.66 5.13,5.13 0 0 1 -0.41,1.11 c -0.92,-0.17 -1.85,-0.33 -2.77,-0.53 a 62.45,62.45 0 0 0 -0.61,-14.65 q -0.52,7.14 -1.06,14.28 l -1.91,-0.44 a 14.36,14.36 0 0 0 -1.77,-3.85 c -0.07,1.13 -0.17,2.25 -0.28,3.38 -2.83,-0.7 -5.64,-1.49 -8.440004,-2.33 a 46.58,46.58 0 0 1 -0.7,-7.73 c 0,-2.21 0.08,-4.65 -1.13,-6.35 q -1.16,5.75 -2.32,11.5 l -2.94,-5.22 a 10.84,10.84 0 0 1 -1.43,2.94 70.76,70.76 0 0 1 -2.06,-19.48 5.51,5.51 0 0 0 -0.28,-2.47 c -0.34,-0.74 -1.22,-1.21 -1.81,-0.72 a 2.32,2.32 0 0 0 -0.58,1.35 c -0.62,3.45 -0.58,7.51 -2.89,9.76 a 71.71,71.71 0 0 0 -2.09,-7.57 c -2.17,0.41 -0.33,6 -2.51,6.33 a 2.8,2.8 0 0 1 -1.22,-0.29 c -1.88,-0.61 -4.05,0.95 -4.43,3.18 a 36.92,36.92 0 0 0 -1.49,-5.48 c -1,1 -1.37,2.63 -1.93,4.05 -0.56,1.42 -1.61,2.84 -2.94,2.73 -1.18,-0.09 -2,-1.43 -2.29,-2.79 a 16.05,16.05 0 0 1 0.11,-4.15 24,24 0 0 0 -1.22,-9.68 q -1.32,6.12 -2.65,12.23 a 2.46,2.46 0 0 1 -0.84,1.52 l -1,-0.49 a 3.24,3.24 0 0 1 -0.19,-0.52 q -0.7,-2.39 -1.39,-4.77 a 4.89,4.89 0 0 0 -3.28,2.8 q -2.15,-1.11 -4.28,-2.25 c -0.4,-1.45 -0.1,-3.37 -0.22,-5 a 14.5,14.5 0 0 0 -1.82,-5.32 28.44,28.44 0 0 1 -1.43,8.47 c -11.66,-6.3 -23.87,-12.92 -37.13,-12.57 -28.04,0.74 -47.2,31.67 -74.5,36.12 v 123.62 H 252.97284 c -11.53,-24.85 -34.68,-63.51 -40.26,-67.37 z"
         style="fill:url(#grad5)"
         inkscape:connector-curvature="0" />
      <path
         id="h1-4"
         d="m 615.42284,742.82866 v -67.95 c -32.59,-68.73 -53.56,-58.59 -101.56,-92.59 -0.14,-1 -0.27,-2 -0.41,-3 a 5.36,5.36 0 0 0 -1.09,2.31 56.55,56.55 0 0 0 -7.75,-2.93 c -0.19,-1.82 -2.36,-3.63 -4,-2.59 q -0.85,-7 -1.7,-14.08 a 46.81,46.81 0 0 0 -2.73,10.6 l -1.16,-3 a 16.62,16.62 0 0 0 -0.43,7.05 c -1.51,-0.19 -3,-0.33 -4.56,-0.46 -0.51,-2.46 -0.45,-9.74 -4.2,-5.36 a 44.16,44.16 0 0 0 -1.47,-10.41 q -2,6.86 -3.95,13.71 a 44,44 0 0 1 -3,-8.83 l -1.35,0.55 a 39.72,39.72 0 0 0 -1.84,-10.65 45.84,45.84 0 0 0 -2.46,5.56 l -0.25,-19.38 c -4.16,4.58 -2.3,13 -3.88,18.87 l -0.78,-8.47 c -1.32,4 0.82,12.1 -3.16,13.94 -0.21,-2.81 -0.41,-5.61 -0.62,-8.41 -2,5.29 0.27,11.14 -1.33,16.31 -0.93,-0.15 -1.85,-0.29 -2.77,-0.45 a 45.62,45.62 0 0 0 -0.61,-12.51 q -0.54,6.09 -1.06,12.18 l -1.91,-0.37 a 11.76,11.76 0 0 0 -1.77,-3.29 c -0.07,1 -0.17,1.93 -0.28,2.89 -2.83,-0.6 -5.65,-1.27 -8.44,-2 -1.27,-3.84 0.32,-8.58 -1.83,-12 l -2.33,9.81 -2.94,-4.46 a 8.34,8.34 0 0 1 -1.43,2.51 c -3.72,-8.44 0.44,-31.59 -7.61,-9.86 a 56,56 0 0 0 -2.1,-6.46 c -2.55,9.5 -4.65,1.59 -8.16,7.87 a 27,27 0 0 0 -1.58,-4.65 c -7.5,13.85 -6.56,-1.79 -8.28,-8.39 -1.32,3.76 -1.37,8.43 -3.48,11.73 l -1,-0.42 c -0.6,-1.47 -1,-3 -1.58,-4.51 a 4.75,4.75 0 0 0 -3.27,2.39 l -4.28,-1.92 c -0.37,-2.95 0,-6.25 -2,-8.82 a 21.06,21.06 0 0 1 -1.44,7.23 c -49.29,-34.29 -86.85,28.8 -137.17,20.71 l -0.24,-2.24 a 17.27,17.27 0 0 0 -0.38,2.34 c -0.65,0.1 -1.29,0.21 -1.93,0.33 a 12.8,12.8 0 0 0 -0.56,-4.29 c -0.12,1.36 -0.25,2.72 -0.37,4.08 -2.29,-0.67 -1.19,-4.81 -1.93,-6.76 -0.15,1.37 -0.31,2.74 -0.47,4.1 -0.93,-2.87 0.08,-7.13 -2.36,-9.15 l -0.15,9.4 a 22.45,22.45 0 0 0 -1.5,-2.7 16.09,16.09 0 0 0 -1.12,5.17 l -0.82,-0.27 a 18.83,18.83 0 0 1 -1.62,3.93 l -0.28,0.12 q -1.16,-3.21 -2.32,-6.41 a 17.14,17.14 0 0 0 -0.89,5.05 c -2.66,-2.43 -2.31,2.71 -2.89,4.27 l -0.58,-0.55 c -2.76,1.71 -1.29,-3 -2.12,-4.32 l -0.71,1.44 a 18.49,18.49 0 0 0 -1.66,-5.14 c -0.34,2.28 -0.68,4.55 -1,6.83 -4.21,-0.74 -1.58,5.19 -3,7.44 l -0.64,0.42 a 6.89,6.89 0 0 0 -1.31,-1.72 l -0.93,1 c -1.73,-1.42 -0.31,-4.09 -1.9,-5.61 l -0.84,4.95 a 3.65,3.65 0 0 1 -2.09,-1.59 c -0.19,0.78 -1.24,5.51 -2.26,9.24 l -8.66,5.85 a 65.51,65.51 0 0 1 -1.3,-8.18 c 0,2.68 -2,7.92 -2.88,11 l -3.06,2.07 c -1,-3.79 -2.06,-7.14 -2.86,-7.28 -0.47,1.36 -1.07,8.89 -1.53,10.25 l -1.7,1.15 c -0.87,-4.35 -1.81,-9.29 -2.35,-11.4 -0.83,2 -0.58,8.93 -0.31,13.19 l -5.71,3.87 c -0.65,-2.27 -1.49,-5.21 -2.16,-5.78 -0.66,1.48 -0.89,5.65 -1.27,7.23 -4.69,-4 -3.69,5.18 -7.43,-5.62 a 53.47,53.47 0 0 0 -2.09,6.46 c -8.06,-21.78 -3.89,1.47 -7.62,9.86 a 8.34,8.34 0 0 1 -1.43,-2.51 l -2.98,4.48 -2.32,-9.81 c -2.32,4.54 -0.48,10.52 -2.67,15.35 -12.35,7.5 -87.61,76.23 -133.54,112.42 z"
         style="fill:url(#grad6)"
         inkscape:connector-curvature="0" />
      <!-- <g id="info">
          <polygon id="arrow" points="353.93 368.91 356.06 366.79 374.26 385 392.47 366.79 394.59 368.91 374.26 389.24 353.93 368.91" fill="#fff" stroke="#231f20" stroke-miterlimit="10" stroke-width="0.5" />
          <path id="text" d="M261.62,345.74c8.46,7,22.53-4.51,8.16-9.84-17.91-5.31-3.78-24.1,9.06-16.36L277.69,323c-8.32-5.73-19.5,5.41-5.8,9.55,18.58,6.42,2.18,25.66-11.33,16.74ZM302.54,350c-23.47,10.27-23.65-31.11.1-21.64l-1,3.27c-17.3-7.88-16.61,23.5.14,15.21Zm4.94-15.11c0-2.74,0-5.09-.19-7.25H311l.14,4.56h.19c1.19-3.52,4.35-5.66,7.63-4.94v4c-10.08-1.88-6.76,14-7.29,19.63h-4.18ZM343.71,339c.06,16.73-23.06,16-22.7.39C320.43,323.17,344.34,323.23,343.71,339Zm-18.43.24c-.33,11.66,14.44,11.71,14.11-.09C340.37,327.86,324.33,327.6,325.28,339.26ZM349,316.76h4.22v34.07H349Zm11.32,0h4.23v34.07h-4.23ZM382,318.92c35.43-9.2,34.89,39.64,0,31.81Zm4.18,28.6c23.33,5.69,24.08-31.95,0-25.53ZM435,339c.06,16.73-23.06,16-22.7.39C411.73,323.17,435.64,323.23,435,339Zm-18.43.24c-.33,11.66,14.43,11.71,14.11-.09C431.67,327.86,415.63,327.6,416.58,339.26Zm25.09-11.66c1.21,4.84,3.94,14.5,4.8,19.2h.15c1-4.69,4.38-14.43,5.85-19.2H456c1.44,4.8,4.69,14.59,5.66,19.2h.15c.7-4.59,3.81-14.45,5.08-19.2h4.18l-7.49,23.23h-3.84c-1.53-5-4.6-13.66-5.61-18.72h-.1c-1,5.17-4.22,13.71-5.85,18.72h-3.84l-7-23.23Zm33.63,6.29c0-2.4,0-4.37-.19-6.29h3.75l.24,3.84h.09c14.6-14.27,17.39,7,15.88,19.39h-4.22c-1-5.08,3.26-20.32-5.37-20.25-9.13,0-5.12,15-6,20.25H475.3Z" fill="#fff" stroke="#231f20" stroke-miterlimit="10" stroke-width="0.5" />
        </g> -->
      <path
         id="bird"
         style="opacity: 0;"
         d="M110.61,428.6c-2.5,2.06-13.64-.79-17.86.84,0,0,1-2.72,2-2,0,0-.12-1.36-1.07-1.21a3.73,3.73,0,0,0-3.88.79s-1.65-.58-2.32-.24c0,0-5.63-5.13-9.77-9.69S65.91,410,64,403.62c0,0-.81,2.45,2.63,6.06,0,0-5.81-5-6.19-7.68a10.73,10.73,0,0,0,4,7.44c-1.93-1.61-3.54-3.69-5.54-5.23l0-.06a.28.28,0,0,0,0,.06c0,1.75,2,3.92,3.22,5.57-1.37,0-4.53-5.34-4.08-3.26a2.1,2.1,0,0,1-.13-.26,13.7,13.7,0,0,0,2.74,4.58c-.53-.07-1.69-1.6-1.86-.88a1.19,1.19,0,0,1-.09-.15c-.16,0,1.38,4.78,4.17,6.74-3-.23,4,4.44,5.37,4.34.4,1.4,3.53,3.2,3.86,4.5,2.33,2.76,4.63,7.07,8.58,8,.46,3.8-10.7,6-4.75,7.88a2.43,2.43,0,0,0,2.36,1.48c.2,1,1.59,1.14,2.38.73.3.49,1.61,2,2,1.31a29.91,29.91,0,0,1,2.58-7.4c.48-.2.89-.53,1.37-.71-.47,1.42,2.28-.32,3-.38a50.42,50.42,0,0,0,11-1.25c.85.59,2.52,1.46,2.37-.34,1.23,1.09,4.19,1,1.77-1a3.33,3.33,0,0,0,2.63,0,6.86,6.86,0,0,1-1.71-1.15c1.88.38,6.14-.19,2.11-1.38A3.77,3.77,0,0,0,110.61,428.6Z"
         fill="#16122b" />
      <path
         id="h1-3"
         d="m 504.49284,744.88866 v -91.11 c -33.51,-10.65 -62.1,-50.46 -98.56,-20.79 a 25.07,25.07 0 0 1 -1.27,-7.47 c -1.85,2.68 -1.48,6.14 -1.8,9.12 -1.25,0.67 -2.51,1.33 -3.77,2 a 4.34,4.34 0 0 0 -2.9,-2.48 c -0.47,1.55 -0.86,3.14 -1.39,4.67 l -0.86,0.44 c -1.9,-3.54 -1.9,-8.23 -3.08,-12.14 -1.52,6.24 -0.48,23.06 -7.3,8.68 a 32,32 0 0 0 -1.39,4.78 c -3.06,-6.27 -5.18,1.34 -7.2,-8.14 a 62.77,62.77 0 0 0 -1.85,6.68 c -7.05,-22.33 -3.46,2 -6.72,10.2 a 9,9 0 0 1 -1.26,-2.6 q -1.31,2.31 -2.6,4.62 -1,-5.08 -2,-10.15 c -1.91,3.59 -0.5,8.47 -1.62,12.42 -2.47,0.74 -5,1.44 -7.45,2.06 -0.1,-1 -0.18,-2 -0.24,-3 a 12.6,12.6 0 0 0 -1.56,3.41 l -1.69,0.38 q -0.46,-6.3 -0.94,-12.6 a 54.83,54.83 0 0 0 -0.53,12.93 c -0.82,0.17 -1.64,0.31 -2.45,0.47 -1.42,-5.4 0.55,-11.39 -1.18,-16.87 l -0.54,8.7 c -3.64,-2.23 -1.56,-10.31 -2.79,-14.41 l -0.69,8.75 c -1.43,-6.09 0.32,-14.52 -3.43,-19.51 l -0.21,20 a 53.6,53.6 0 0 0 -2.18,-5.75 47.85,47.85 0 0 0 -1.62,11 l -1.19,-0.57 a 51.53,51.53 0 0 1 -2.64,9.14 q -1.74,-7.1 -3.49,-14.18 a 53.84,53.84 0 0 0 -1.33,10.82 c -3.5,-4.54 -3.22,3.32 -3.7,5.54 -1.35,0.13 -2.69,0.28 -4,0.47 a 20.24,20.24 0 0 0 -0.39,-7.28 l -1,3.07 a 55.47,55.47 0 0 0 -2.42,-11 q -0.74,7.29 -1.49,14.57 c -1.51,-1.13 -3.44,1 -3.55,2.68 a 46,46 0 0 0 -6.84,3 6.2,6.2 0 0 0 -1,-2.39 c -0.12,1 -0.24,2.09 -0.37,3.13 -34.54,30.71 -61.91,27.5 -84.12,78.71 z"
         style="fill:url(#grad7)"
         inkscape:connector-curvature="0" />
      <path
         id="h1-2"
         d="m 334.23284,706.26866 c 5.16,-5 -11.74,0.58 1.39,-8.14 3.06,-4.4 -10.55,0.51 -5.45,-5.72 1.87,-2.26 -3.86,-2.07 -1.53,-4.31 2.18,-3.68 -5.58,-0.57 -5.2,-4.1 0.27,-2.94 5.63,-1.63 5.89,-4.53 -1.27,-1.36 -8.66,-0.73 -3.81,-4.29 0.78,-0.64 0.63,-1.93 -0.49,-1.76 -11.28,0.92 7.41,-5.34 -5.09,-5 -0.07,-7.42 -4,-8.29 -4,0.43 -2.15,-0.06 -6.11,0.48 -2.34,2.77 6.88,4.11 -6.21,-0.91 -0.09,6.26 -9.68,-0.45 2.22,4.05 -1.66,6.62 -6.42,-0.72 1,3.05 -0.35,5 -2.22,-0.11 -9.69,-2.36 -6.67,2.14 1.41,1.08 5.44,1.67 4.16,4.19 -14,0.35 -1.69,-3.29 -6.22,-5.16 -9.47,0.18 3.15,-4.84 1.85,-7.73 -9.62,0.27 -4.67,-0.91 -7.3,-8.13 2.83,-4.76 -13.74,0.93 0.69,-8.63 -5.13,-2.29 -6.41,0.32 -3.61,-5.93 -11.85,0.81 5.66,-5.38 -5.78,-5.15 0.15,-7.09 -4.22,-7.89 -4,0.44 -2.15,-0.07 -6.11,0.47 -2.34,2.76 6.88,4.11 -6.2,-0.91 -0.09,6.27 -9.68,-0.46 2.23,4 -1.66,6.61 -6.41,-0.72 1,3.06 -0.35,5 -14.1,-1.58 -4.48,1.08 -2.41,6.18 -0.74,2 -7.34,-1 -3.91,2.67 6.41,3.38 -1.72,4.42 -4.8,2.38 1.12,-4.51 -12.53,0.43 -0.71,-6.68 -12.2,-0.93 6.29,-5 -5.76,-4.73 -5.54,-2.52 8.3,-3.7 -0.69,-5.23 -5.84,-1.94 4.42,-3.47 0.4,-4.84 -1.22,0.31 -3.76,-0.16 -2.87,-1.84 6.91,-2.07 -0.72,-1.42 -0.68,-3.93 4.92,-1.72 -0.21,-1.63 -0.26,-3.51 4.44,1.35 -1.94,-14 -3.67,-3.17 -0.8,2.29 -5.49,0.91 -1.55,3.84 2.52,3.94 -2.5,1.25 -3.25,3 4.7,6 -1.57,2.19 -1.09,5.78 3.53,4 1.11,3.15 -2.25,3.33 2.61,4 2.08,8.22 -3.68,5.72 -1.62,-1.67 4.32,-3.9 0.4,-4.44 -10.78,0.43 6.22,-6.38 0.89,-8 -7.78,1.15 -3.82,-0.52 -6.33,-7.88 2.17,-3.68 -5.59,-0.58 -5.2,-4.1 0.31,-2.7 4.62,-1.82 5.73,-3.86 0.94,-2.65 -9.36,-0.72 -3.66,-5 2.7,-3.64 -6.79,0.55 -3.65,-3.67 5,-2 1.56,-3.17 -1.92,-3.12 -0.54,-0.27 0.63,-8.46 -3.55,-4.92 1.75,8.9 -7.66,3.56 -2.78,8.13 6.88,4.11 -6.21,-0.92 -0.09,6.26 -9.68,-0.45 2.22,4 -1.66,6.62 -6.42,-0.73 1,3 -0.35,5 -14.11,-1.58 -4.48,1.08 -2.41,6.19 -0.82,1.56 -3.05,0.34 -4.45,0.57 -1.81,1.88 8.35,6.13 -0.87,5.54 7.65,-5.69 -10,0.57 -0.46,-8.75 -5.45,-1.75 -6.32,-1.71 -1.64,-6.16 -2.69,-2.14 -5.64,0.68 -2.42,-5.44 -2.48,-0.13 -4.29,0.5 -1.67,-2.47 0.2,-2.56 -4.21,-0.12 -0.81,-4.3 -4,-0.95 -2.86,-0.66 -1.28,-3.78 -4.36,-0.68 -3.26,-9.29 -5.9,-0.45 -1.69,0.42 -0.32,2 0.9,1.53 -0.32,1.21 -3.28,1.72 -0.2,2.6 -0.13,1.72 -5.33,1.7 -0.51,2.92 0.67,1.25 -1.22,1.6 -2.13,1.37 -3,1 4.64,2.15 0.3,3.6 -7,1.29 3.64,2 -0.51,3.87 -9,-0.18 4.78,2.82 -4.28,3.52 11,6.71 -6.38,0.31 1.4,6.37 -0.76,2 -6.41,-1.15 -5.09,1.82 2.32,0.84 4.11,2.25 0.87,3.47 -4.11,1.08 -2,1.74 -3.25,-0.62 -6.34,0.25 3.67,-3.77 0.53,-4.71 -5.43,1 -1.73,-1.91 -3.33,-3.35 a 0.71,0.71 0 0 1 -0.4,-1.29 c 0.24,-2.77 -7.7,-0.85 0.31,-4.69 0.55,-1.57 -5.52,-0.43 -2.15,-2.93 1.59,-2.15 -4,0.32 -2.16,-2.16 3,-1.18 0.92,-1.87 -1.13,-1.84 -0.32,-0.16 0.37,-5 -2.09,-2.9 1,5.58 -4.69,1.75 -1.64,4.79 3.93,2.34 -3.67,-0.41 -0.05,3.69 -5.7,-0.27 1.3,2.39 -1,3.9 -3.78,-0.43 0.56,1.8 -0.21,2.95 -7.14,-1 -3.36,0.55 -1.4,3.6 -20.82,-5.42 15.55,-8.49 -9.78,-14.34 -1,-4.08 4.92,-5 6.1,-8.35 -2.57,-4.75 -11.79,3.63 -4.62,-10.39 -4.74,-0.25 -8.2,1 -3.19,-4.72 1,-5.25 -8.31,0.83 -1.55,-8.2 -0.43,-2.27 -3.52,0 -4.8,-0.76 -3,-2.12 3.41,-5 2.35,-6.46 -8.43,-0.81 -5.66,-18.62 -11.26,-0.86 -3.23,0.81 -0.61,3.74 1.71,2.91 -0.06,2.62 -7.33,2.59 -0.37,5 1.16,2.72 -5.59,1.51 -4.85,4.07 0.49,1.35 2.93,0.41 3.88,1.5 1.26,2.37 -2.34,3.06 -4.07,2.61 -5.69,1.95 8.86,4.1 0.58,6.87 -12.17,1.9 6.57,4.08 -1,7.41 -17.71,-1 8.72,6.71 -6.76,5.84 -6.41,-2.11 -7.5,-2 -1.94,-7.31 -3.15,-2.61 -6.72,1.08 -2.86,-6.42 -2.94,-0.15 -5.08,0.59 -2,-2.92 0.43,-3.17 -5.08,0.26 -1,-5.07 -4.84,-1.29 -3.61,-0.46 -1.52,-4.47 -2.94,-0.11 -2.83,-2.64 -4,-4.7 -3,-2.3 -1.29,3.54 -2.94,4.17 -2,0.5 -0.38,2.31 1.06,1.8 0,1.62 -4.53,1.6 -0.23,3.08 0,2.09 -6.51,1.85 -0.6,3.45 0.78,1.46 -1.45,1.89 -2.52,1.61 -3.52,1.21 5.48,2.54 0.36,4.25 -7.81,1.33 4.22,2.36 -0.61,4.58 -10.59,-0.21 5.65,3.33 -5,4.16 10.45,6.46 -0.72,1.82 -0.83,5.58 8.72,4.58 -6.19,0.52 -3.48,4.14 7.92,3.4 -3.1,4.87 -2.53,0.79 -6.340004,-0.08 3.86,-3.57 0.78,-4.68 -4.16,1 -2.76,-2.51 -3.48,-4.83 0.07,-2.93 -7.440004,-0.71 0.56,-4.66 0.63,-1.54 -5.480004,-0.72 -2.000004,-3 1.700004,-2.06 -4,0.12 -2,-2.27 3.000004,-1 1,-1.81 -1,-1.89 -0.31,-0.18 0.64,-5 -1.93,-3 0.74,5.62 -4.78,1.51 -1.89,4.7 3.79,2.53 -3.64,-0.6 -0.26,3.68 -5.67,-0.56 1.18,2.45 -1.18,3.84 -3.75,-0.62 0.47,1.83 -0.36,2.94 -10.47,-2.77 3.15,4.78 -4.25,3.77 4.88,5.83 -10.67,1.08 -1.94,-3.71 -2.69,-2.14 -5.64,0.67 -2.41,-5.44 -2.49,-0.13 -4.3,0.5 -1.68,-2.47 0.2,-2.56 -4.21,-0.12 -0.8,-4.3 -4.11,-0.92 -2.8,-0.73 -1.29,-3.78 -2.48,-0.09 -2.39,-2.23 -3.41,-4 -2.53,-1.94 -1.09,3 -2.49,3.53 -1.69,0.43 -0.32,2 0.9,1.53 -4.38,3.14 2.56,2 -1.38,3.72 -4.45,0.74 4.45,2.51 -0.9,3.21 0.38,-2.33 -7.66,0.62 -4.27,-3.65 1.35,-1.65 -2.69,-1.46 -1.17,-3.09 1.84,-2.7 -4,-0.51 -3.7,-3.06 0.21,-2.14 4.1,-1.16 4.3,-3.27 -0.91,-1 -6.31,-0.58 -2.76,-3.14 2,-2.64 -5,0.37 -2.65,-2.68 0.73,-0.47 2.22,-0.65 1.93,-1.71 -6.38,0.22 -1.28,-6.35 -5.87,-4.17 -1.08,0.91 0.93,3.06 -0.35,3.9 -1.56,-0.05 -4.45,0.32 -1.71,2 4.85,2.92 -4.53,-0.54 -0.09,4.56 -7,-0.37 1.6,3 -1.23,4.81 -6.21,-0.48 5.52,5.54 -3.69,3.19 1.39,-0.38 1.75,-2.57 -0.11,-2.32 -10.78,0.43 6.22,-6.38 0.89,-8 -7.78,1.12 -3.8,-0.39 -6.34,-7.87 2.84,-4.76 -13.74,0.93 0.7,-8.64 -5.14,-2.28 -6.42,0.33 -3.61,-5.92 -1.49,-0.19 -6.09,1 -3.86,-2 5,-2 1.56,-3.17 -1.92,-3.12 -0.54,-0.27 0.63,-8.46 -3.55,-4.92 1.74,8.81 -7.58,3.61 -2.78,8.12 6.88,4.11 -6.21,-0.91 -0.09,6.27 -9.68,-0.46 2.22,4 -1.66,6.61 -6.42,-0.72 1,3.05 -0.35,5 -14.11,-1.57 -4.48,1.09 -2.41,6.19 -7.27,2.1 -5,-0.36 -1.57,5.11 -2.6,3.16 -9.48,-3.16 -9.41,2.41 -10.5100002,-4.19 11.08,-4.29 -4.8300002,-8.59 9.5900002,-12.9 -5.12,0.44 0.92,-11.59 -2.94,-0.16 -5.08,0.59 -2,-2.92 0.43,-3.17 -5.08,0.26 -1,-5.08 -0.26,-1.4 -2.17,0 -3,-0.47 1.94,-7.42 0.17,-1 -2.57,-8.7 -3,-2.29 -1.28999998,3.55 -2.94,4.18 -2,0.49 -0.38,2.31 1.06000002,1.79 0,1.63 -4.54000002,1.6 -0.23,3.08 0,2.11 -6.51000002,1.85 -0.60000002,3.45 0.83000002,2 -2,1.54 -3.16,1.72 0.2,3.2 6.63,2.1 -1.44,4.91 -2.72,0.08 -2.75,-1 -1.54,-3.2 -1.58,0 -2.7099998,0.1 -1.09,-1.62 0.13,-1.67 -2.7599998,-0.08 -0.53,-2.81 -2.6099998,-0.69 -1.9999998,-0.31 -0.8399998,-2.48 -1.63,-0.06 -1.57,-1.46 -2.24,-2.6 -0.85,-1.31 -2.94,4.33 -1,3.31 -0.2,0.79 -2.14,1.12 -0.12,1.7 -0.1,1.13 -3.49,1.12 -0.34,1.91 0.44,0.82 -0.8,1 -1.39,0.9 -2,0.66 3,1.4 0.2,2.35 -4.46,0.71 2.3,1.38 -0.34,2.54 -5.46,-0.29 2.79,2 -2.8,2.3 5.29,3.29 0.61,0.84 -0.46,3.09 3.17,1.72 -0.49,1.56 -2.07,1.39 5.62,-3.91 -10.06,-2.36 -5.48,-7.07 10.21,-6.19 -11.14,-3.29 1.25,-11.79 -3.09,-3.14 -7.74,1.64 -3.2,-7.24 -3.3,-0.18 -5.7,0.66 -2.22,-3.28 0.48,-3.57 -5.71,0.29 -1.07,-5.7 -9.55,-1.62 1.9,-4.21 -2.79,-5.36 -2.68,0.41 -3.9,-10.11 -5.79,-3.4 1,2.63 -4.89,5.16 0.23,5.16 0,1.82 -5.09,1.8 -0.25,3.46 -0.06,2.36 -7.33,2.08 -0.68,3.88 0.88,1.65 -1.62,2.12 -2.83,1.81 -4,1.36 6.16,2.85 0.4,4.78 -8.86,1.48 4.77,2.67 -0.68,5.15 -11.9,-0.24 6.35,3.74 -5.68,4.66 0.18,2.26 5,1.07 4.84,3.51 -1.91,2.93 -10.39,-0.72 -3,5 -1,2.59 -8.59,-1.54 -6.69,2.46 3.11,1.07 5.31,3 1.09,4.56 a 5.5,5.5 0 0 0 -2.92,1 c -21,-4.74 14.24,-9.36 -10.31,-14.48 -1,-4.08 4.92,-5.05 6.1,-8.35 -2.56,-4.75 -11.79,3.63 -4.61,-10.39 -4.75,-0.25 -8.21,1 -3.2,-4.71 1,-5.26 -8.3,0.82 -1.54,-8.21 -0.43,-2.27 -3.52,0 -4.81,-0.76 -3,-2.12 3.41,-5 2.36,-6.46 -4.75,-0.17 -4.58,-4.27 -6.52,-7.6 -4.83,-3.69 -2.08,5.72 -4.75,6.74 -3.22,0.81 -0.61,3.74 1.72,2.91 -0.06,2.62 -7.34,2.59 -0.37,5 1.15,2.72 -5.6,1.51 -4.86,4.07 4.29,0.89 5.93,4.66 -0.19,4.11 -5.69,1.95 8.86,4.1 0.58,6.87 -12.17,1.9 6.58,4.08 -1,7.4 -17.619996,-0.13 9.56,5.15 -8.17,6.72 0.26,3.24 7.15,1.53 7,5 -3.2,4.42 -14.499996,-1.48 -4.37,7.25 -16.759996,-2.77 6.36,-6.08 -8.619996,-9.37 9.599996,-12.91 -5.11,0.43 0.92,-11.6 -2.93,-0.16 -5.07,0.59 -2,-2.92 0.42,-3.17 -5.09,0.26 -1,-5.07 -0.27,-1.41 -2.18,0 -3,-0.47 1.94,-7.44 0.21,-1 -2.57,-8.7 -3,-2.3 -1.29,3.54 -2.93,4.17 -2,0.49 -0.39,2.31 1,1.8 0,1.62 -4.54,1.59 -0.22,3.08 -0.06,2.1 -6.51,1.84 -0.61,3.45 0.84,2 -2,1.54 -3.15,1.71 -0.41,2.91 7,2.16 -1.2,4.73 3.83,-3 -3.3,-3 -0.93,-5.63 3.08,-4.21 -12.45,-0.82 -2.84,-6.88 1.45,-0.39 3.53,-0.82 3.6,-2.54 -0.71,-1.87 -6.8,0.32 -5.71,-3.29 3.43,-2.58 1.75,-3.87 -1.85,-2.94 -1.1,-1.3 -0.19,120.41 -0.23,154.5 h 467.75 c 5.92,-4.51 3.72,-10.39 -9.11,-18 z m -447.88,-112 c -1.36,0.11 -3.05,-0.89 -3,-2.25 0.6,0.86 3.67,0.48 3,2.25 z m 107.4699958,18.35 c 0.12,0 0.22,0.1 0.33,0.14 2.56,2.07 -3.34,1.84 -0.33,-0.15 z m -1.9,-2.67 c -0.32,-1.24 1.32,-1.65 1.88,-2.5 5.95000002,1.92 1.67,4.31 -1.88,2.49 z m 77.1200002,31.76 c 0.12,-0.73 1.62,-2.22 2.09,-1.22 0.47,1 -1.24,1.52 -2.09,1.21 z m -0.49,-2.38 c -3.46,-0.59 -0.05,-3.14 1.48,-3.86 5.58,1.8 -1.64,2.03 -1.48,3.85 z m 65.810004,17.06 a 2.55,2.55 0 0 1 0.75,0.43 c -0.36,0 -0.7,-0.02 -0.75,-0.44 z m 2.37,-4 c -1.58,-1 -3.82,-1 -5.46,-1.77 -4.8,-7.5 15.9,-0.43 5.46,1.77 z m 129.74,36.88 a 0.7,0.7 0 0 1 0.41,-0.85 c -0.35,0.38 0.08,1.85 -0.41,0.85 z m 39.5,11.52 h 1.5 c -0.15,0.63 -1,0.01 -1.48,0.03 z"
         style="fill:url(#grad8)"
         inkscape:connector-curvature="0" />
      <path
         id="h1-1"
         d="m 691.62284,726.67866 c -5.65,-0.19 10.92,-182.57 -7.17,-162 -1.31,-2.92 9.88,-6.67 0.34,-5.87 -4.24,-0.44 1,-4 -1.72,-4.8 -2.49,-0.42 1.86,-4.33 -2.2,-3.39 -8.74,-1.35 7.4,-5.58 0.13,-5.93 -1.16,0.14 -2.66,-0.83 -2.15,-1.87 5.62,-4.46 -4.52,-0.31 -1.81,-4 4.06,-1.59 1.25,-2.59 -1.55,-2.52 -0.43,-0.22 0.51,-6.83 -2.86,-4 1.48,7.41 -6.36,2.56 -2.25,6.56 5.14,3 -5,-0.25 -0.08,5.06 -7.81,-0.36 1.8,3.26 -1.33,5.34 -5.19,-0.58 0.77,2.46 -0.29,4.05 -14.58,-3.05 4.72,6.31 -5.53,5.46 -1.7,1.79 5.19,2.86 1.22,4.65 -9,-2.33 -7.62,1.55 -0.87,4.1 -0.85,3.28 -7.17,0.63 -6.46,4.61 a 2.16,2.16 0 0 0 -2.05,-1.46 c -3.92,-1.42 2.25,-2 0.32,-3.26 -1,-0.12 -2.49,0.65 -3.16,-0.31 5,-3.59 -6.35,-0.29 0.94,-4.3 -5.75,-0.3 2.74,-2.66 -2.88,-2.37 -2.72,-1.19 4.24,-1.88 -0.35,-2.61 -2.92,-1 2.21,-1.74 0.2,-2.42 -0.61,0.15 -1.88,-0.09 -1.43,-0.93 3.25,-0.82 -0.26,-0.81 -0.35,-2 2.08,-0.6 0.08,-0.94 -0.13,-1.76 2,1.08 -0.21,-4.83 -1.07,-3.41 -2.69,3 -0.16,4.58 -3.16,5.23 2.16,2.44 -0.56,1.32 -0.55,2.9 1.66,1.77 0.5,1.65 -1.13,1.66 2.07,3.55 0.2,2.46 -1.63,3.67 3,2.68 2.38,3.16 -1.1,4.15 6.38,6.85 -5.28,1.52 -0.27,6 a 54.76,54.76 0 0 1 -5.21,3 c -5.88,-1.82 5.87,-3.27 -2.9,-4.93 5,-6.49 -2.77,-0.61 0.52,-6.62 -1.63,0 -2.78,0.1 -1.13,-1.67 0,-1.57 -2.69,-0.47 -0.54,-2.89 -2.57,-0.64 -2.07,-0.48 -0.87,-2.55 -1.67,-0.06 -1.61,-1.51 -2.3,-2.68 -1.75,-1.1 -2.47,5.84 -1.2,5.16 -3.88,2.37 2.78,2.17 -2.14,2.95 -0.76,1.13 3.25,1.24 0.57,2.36 -4.6,0.73 2.37,1.42 -0.35,2.62 -5,-0.63 2.12,2.54 -2.68,2.17 -6,-1.33 1.92,-3 -3.55,-4.14 3.51,-4.39 -1.9,-0.75 0.38,-4.83 -1.19,0 -2,0.08 -0.82,-1.21 0,-1.15 -2,-0.36 -0.4,-2.12 -1.93,-0.73 -0.68,-1.93 -2.31,-3.82 -0.68,-0.92 -2.23,3.19 -0.78,2.49 -0.17,0.62 -1.6,0.83 -0.1,1.28 -0.07,0.86 -2.61,0.83 -0.25,1.44 0.33,0.61 -0.6,0.79 -1,0.67 -1.46,0.51 2.29,1.06 0.15,1.77 -3.35,0.54 1.73,1 -0.25,1.91 -3.5,-0.29 1.48,1.61 -2.1,1.73 4.39,3.22 -9.59,0.52 0,-5.62 -3.38,-2.44 -6.84,0.32 -3,-6.7 -3,0 -5.09,0.19 -2.06,-3 0.24,-3.13 -5.17,-0.19 -1,-5.29 -6.9,-1.54 0.83,-1 -5.78,-9.55 -3.11,-2.4 -1.33,3.69 -3.06,4.34 -2.07,0.52 -0.4,2.41 1.11,1.88 -0.41,1.55 -4,2.06 -0.24,3.21 -0.17,2.13 -6.55,2.07 -0.63,3.59 0.81,1.53 -1.5,2 -2.62,1.68 -3.67,1.25 5.71,2.65 0.37,4.43 -8.39,1.33 4.33,2.58 -0.63,4.77 -10.29,-0.54 5.25,3.78 -5.27,4.33 0.17,2.09 4.61,1 4.49,3.25 -1.86,2.78 -9.73,-0.67 -2.77,4.6 -0.93,2.4 -7.89,-1.42 -6.27,2.23 3,1 4.86,3 1.14,4.22 -7.71,1.52 -5.08,12.81 -10,18.06 -5.1,0.06 -1.56,-2.95 0.16,-4.78 -2.44,-1.6 -4.9,-0.21 -2.17,-4.88 -2.17,0 -3.7,0.14 -1.5,-2.21 0,-2.09 -3.58,-0.63 -0.72,-3.85 -3.42,-0.85 -2.75,-0.63 -1.15,-3.39 -2.23,-0.08 -2.15,-2 -3.06,-3.56 -2.27,-1.75 -1,2.68 -2.23,3.16 -1.51,0.38 -0.29,1.76 0.81,1.36 -0.3,1.13 -2.92,1.51 -0.18,2.34 -0.12,1.55 -4.77,1.51 -0.45,2.62 0.59,1.12 -1.1,1.43 -1.92,1.22 -2.66,0.91 4.16,1.93 0.28,3.22 -6.11,1 3.15,1.89 -0.46,3.48 -7.48,-0.39 3.8,2.75 -3.84,3.15 7.29,4.68 0.73,1.27 -0.63,4.23 4.63,2.76 -1.08,1.54 -2.84,2.22 7.79,-7.19 -4.17,-1 0.78,-8.7 -2.34,0 -4,0.15 -1.62,-2.39 0.19,-2.45 -4,-0.15 -0.78,-4.14 -7,-1.38 1.23,-2.62 -2,-3.9 -1.94,0.3 -2.84,-7.35 -4.22,-2.47 0.76,1.91 -3.55,3.76 0.17,3.75 -0.31,1.22 -3.14,1.62 -0.18,2.52 -0.14,1.67 -5.14,1.62 -0.5,2.82 0.64,1.2 -1.18,1.54 -2,1.32 -2.88,1 4.48,2.07 0.29,3.47 -6.58,1.05 3.4,2 -0.5,3.74 -8,-0.42 4.11,3 -4.13,3.4 10.59,6.3 -6,0.57 1.35,6.15 -1,1.38 -3.16,0.27 -4.52,0.45 -0.43,4.06 7.08,2.38 -3.37,6.12 -5.71,0.48 4.63,-4.45 -1.52,-3.51 -1.79,-0.23 -0.1,-1 -1.27,-3.68 -0.94,-2.47 -5.06,-0.15 0.31,-3.89 -2.34,-0.85 -2.73,-0.16 -1.62,-2.67 -0.67,-0.09 -2.75,0.44 -1.75,-0.92 2.27,-0.89 0.7,-1.45 -0.86,-1.41 -0.24,-0.12 0.29,-3.81 -1.6,-2.22 0.94,3.52 -3.33,1.82 -1.26,3.67 2.87,1.65 -2.79,-0.14 0,2.82 -4.35,-0.19 1,1.83 -0.75,3 -2.89,-0.32 0.44,1.37 -0.16,2.26 -7.36,-1.67 2.25,3.67 -3.09,3.05 -1,1 2.9,1.6 0.69,2.6 -4.72,-1.34 -4.13,1 -0.49,2.29 -0.37,1.72 -5.23,0.65 -3.18,3 -2.82,1 -8,1.39 -4.29,-2.77 -4.08,-0.65 -3.25,-8.88 -5.66,-0.42 -1.62,0.4 -0.31,1.87 0.86,1.45 -0.32,1.21 -3.13,1.61 -0.19,2.5 -0.13,1.67 -5.1,1.62 -0.49,2.8 0.64,1.2 -1.17,1.53 -2,1.31 -2.86,1 4.45,2.07 0.29,3.45 -6.53,1 3.38,2 -0.49,3.72 -8,-0.42 4.07,2.94 -4.1,3.37 10.51,6.26 -5.95,0.57 1.33,6.12 -0.94,1.36 -3.14,0.26 -4.49,0.44 -2.75,1.84 6,2.62 0.45,4.63 -1.57,-0.22 -3.88,1.83 -2,3.35 -1.09,1.23 -5.42,2.3 -1.85,0.15 -3.17,-1.23 -1.57,-0.8 -0.8,-2.52 -4.17,-0.05 1.54,-1.41 -1.15,-1.88 -2,-0.81 1.57,-0.63 -0.8,-2.15 2.22,0 -0.35,-1.1 0.1,-2.25 -0.83,-2.92 -1.36,1.66 -2.52,1.48 -1.87,0.82 3.06,1.7 -1.21,2.34 1.85,2.09 -0.48,1.12 -0.47,2.48 1.42,1.51 0.43,1.41 -1,1.42 1.66,2.64 0.09,2.26 -1.4,3.15 2.57,2.29 2,2.7 -0.94,3.56 6.39,5.32 -13.47,7.73 -3.13,-0.78 -2.84,-1.86 -5.71,-0.24 -2.53,-5.68 -2.53,0 -4.3,0.16 -1.74,-2.58 0.2,-2.64 -4.38,-0.16 -0.85,-4.48 -5.53,-1 0.39,-1.54 -4.9,-8.09 -2.63,-2 -1.13,3.12 -2.59,3.68 -1.75,0.44 -0.34,2 0.94,1.59 -0.34,1.31 -3.4,1.75 -0.2,2.72 -0.15,1.8 -5.56,1.75 -0.54,3 0.69,1.3 -1.27,1.67 -2.22,1.43 -3.11,1.06 4.84,2.24 0.32,3.75 -7.11,1.13 3.67,2.19 -0.54,4.05 -8.7,-0.46 4.44,3.19 -4.46,3.66 0.14,1.77 3.9,0.84 3.8,2.76 -11.08,2.45 4.62,4.82 -7.23,4.38 -3,2 6.48,3 0.54,5 -19.56,16.4 -40,40.41 -67.65,39.92 -255.7,37.68 302.96,17.74 301.34,22.33 z m -71.39,-157.87 c 1.82,-1.17 4.91,2.33 0.87,1.59 -0.56,-0.34 -1.77,-0.92 -0.87,-1.59 z m -11.51,-0.42 c 1.22,-0.95 0.69,0.18 -0.18,0.42 -0.43,0.08 -0.07,-0.19 0.18,-0.42 z m -54.73,30.29 a 4.74,4.74 0 0 0 1.56,0.73 c -0.68,0.14 -1.97,-0.79 -1.56,-0.73 z"
         style="fill:url(#grad9)"
         inkscape:connector-curvature="0" />
      <rect
         id="rect3840"
         width="76.492538"
         height="31.716417"
         x="-1.4925408"
         y="377.28357"
         style="fill:#e9c6af" />
    </g>
  </g>
</svg>
