<?xml version="1.0" encoding="UTF-8" standalone="no"?>
<svg
   xmlns:dc="http://purl.org/dc/elements/1.1/"
   xmlns:cc="http://creativecommons.org/ns#"
   xmlns:rdf="http://www.w3.org/1999/02/22-rdf-syntax-ns#"
   xmlns:svg="http://www.w3.org/2000/svg"
   xmlns="http://www.w3.org/2000/svg"
   xmlns:xlink="http://www.w3.org/1999/xlink"
   xmlns:sodipodi="http://sodipodi.sourceforge.net/DTD/sodipodi-0.dtd"
   xmlns:inkscape="http://www.inkscape.org/namespaces/inkscape"
   viewBox="0 0 750 500"
   preserveAspectRatio="xMidYMax slice"
   version="1.1"
   id="svg3816"
   sodipodi:docname="5.svg"
   inkscape:version="0.92.1 r15371">
  <metadata
     id="metadata3820">
    <rdf:RDF>
      <cc:Work
         rdf:about="">
        <dc:format>image/svg+xml</dc:format>
        <dc:type
           rdf:resource="http://purl.org/dc/dcmitype/StillImage" />
        <dc:title />
      </cc:Work>
    </rdf:RDF>
  </metadata>
  <sodipodi:namedview
     pagecolor="#ffffff"
     bordercolor="#666666"
     borderopacity="1"
     objecttolerance="10"
     gridtolerance="10"
     guidetolerance="10"
     inkscape:pageopacity="0"
     inkscape:pageshadow="2"
     inkscape:window-width="1366"
     inkscape:window-height="705"
     id="namedview3818"
     showgrid="false"
     inkscape:zoom="1.072"
     inkscape:cx="223.04003"
     inkscape:cy="74.766067"
     inkscape:window-x="-8"
     inkscape:window-y="-8"
     inkscape:window-maximized="1"
     inkscape:current-layer="hills1" />
  <defs
     id="defs3802">
    <linearGradient
       inkscape:collect="always"
       id="linearGradient4654">
      <stop
         style="stop-color:#c87137;stop-opacity:1;"
         offset="0"
         id="stop4650" />
      <stop
         style="stop-color:#c87137;stop-opacity:0;"
         offset="1"
         id="stop4652" />
    </linearGradient>
    <!-- Scene 1 Gradient -->
    <linearGradient
       id="grad1"
       x1="-154.32"
       y1="263.27"
       x2="-154.32"
       y2="374.3"
       gradientTransform="matrix(-1,0,0,1.36,1064.5018,17.397313)"
       gradientUnits="userSpaceOnUse">
      <stop
         offset="0.07"
         stop-color="#9c536b"
         id="stop3680" />
      <stop
         offset="0.98"
         stop-color="#d98981"
         id="stop3682" />
    </linearGradient>
    <radialGradient
       id="bg_grad"
       cx="375"
       cy="-35"
       r="318.69"
       gradientUnits="userSpaceOnUse">
      <stop
         offset="0.1"
         stop-color="#F5C54E"
         id="sun" />
      <stop
         offset="0.1"
         stop-color="#FFDBA6"
         id="stop3686" />
      <stop
         offset="0.0"
         stop-color="#F7BB93"
         id="stop3688" />
      <stop
         offset="0.0"
         stop-color="#F2995E"
         id="stop3690" />
      <stop
         offset="0.0"
         stop-color="#f07560"
         id="stop3692" />
      <stop
         offset="0.8"
         stop-color="#FFAB93"
         id="stop3694" />
    </radialGradient>
    <linearGradient
       id="grad2"
       x1="242.5"
       y1="356.25"
       x2="750"
       y2="356.25"
       gradientUnits="userSpaceOnUse"
       gradientTransform="translate(658.58209,176.30597)">
      <stop
         offset="0"
         stop-color="#fbbd93"
         id="stop3697" />
      <stop
         offset="0.98"
         stop-color="#c46976"
         id="stop3699" />
    </linearGradient>
    <linearGradient
       id="grad3"
       x1="467.26"
       y1="500"
       x2="467.26"
       y2="225.47"
       gradientUnits="userSpaceOnUse"
       gradientTransform="translate(-74.626866,556.90299)">
      <stop
         offset="0.01"
         stop-color="#ffb8bd"
         id="stop3702" />
      <stop
         offset="1"
         stop-color="#914d64"
         id="stop3704" />
    </linearGradient>
    <linearGradient
       id="grad4"
       x1="216.56"
       y1="227.64"
       x2="191.14"
       y2="600.82"
       gradientUnits="userSpaceOnUse"
       gradientTransform="translate(-49.87716,237.56866)">
      <stop
         offset="0"
         stop-color="#70375a"
         id="stop3707" />
      <stop
         offset="0.96"
         stop-color="#8a6e95"
         id="stop3709" />
    </linearGradient>
    <linearGradient
       id="grad5"
       x1="1"
       y1="413.12"
       x2="340.58"
       y2="413.12"
       gradientUnits="userSpaceOnUse"
       gradientTransform="translate(-87.607168,269.81866)">
      <stop
         offset="0"
         stop-color="#433d6c"
         id="stop3712" />
      <stop
         offset="1"
         stop-color="#392e54"
         id="stop3714" />
    </linearGradient>
    <linearGradient
       id="grad6"
       x1="454.13"
       y1="295.96"
       x2="454.13"
       y2="498.93"
       gradientUnits="userSpaceOnUse"
       gradientTransform="translate(-135.57716,242.82866)">
      <stop
         offset="0"
         stop-color="#2b2850"
         id="stop3717" />
      <stop
         offset="0.99"
         stop-color="#563a6a"
         id="stop3719" />
    </linearGradient>
    <linearGradient
       id="grad7"
       x1="434.38"
       y1="391.96"
       x2="474.27"
       y2="516.33"
       gradientUnits="userSpaceOnUse"
       gradientTransform="translate(-95.22716,244.88866)">
      <stop
         offset="0.3"
         stop-color="#1c1b38"
         id="stop3722" />
      <stop
         offset="0.38"
         stop-color="#201e3e"
         id="stop3724" />
      <stop
         offset="0.9"
         stop-color="#383263"
         id="stop3726" />
    </linearGradient>
    <linearGradient
       id="grad8"
       x1="259.18"
       y1="335.54"
       x2="213.65"
       y2="500.39"
       gradientUnits="userSpaceOnUse"
       gradientTransform="translate(0.47283998,-134.87313)">
      <stop
         offset="0"
         stop-color="#0e0a1a"
         id="stop3729" />
      <stop
         offset="0.3"
         stop-color="#100d1f"
         id="stop3731" />
      <stop
         offset="0.64"
         stop-color="#17142c"
         id="stop3733" />
      <stop
         offset="0.95"
         stop-color="#201f3f"
         id="stop3735" />
    </linearGradient>
    <linearGradient
       id="grad9"
       x1="508.16"
       y1="321.39001"
       x2="726.96997"
       y2="623.69"
       gradientUnits="userSpaceOnUse"
       gradientTransform="translate(-11.604026,-144.74313)"
       xlink:href="#lg4">
      <stop
         offset="0.01"
         stop-color="#120e22"
         id="stop3738" />
      <stop
         offset="1"
         stop-color="#221d42"
         id="stop3740" />
    </linearGradient>
    <!-- Scene2 Gradient -->
    <linearGradient
       id="lg4"
       x1="641.98"
       y1="274.9"
       x2="638.02"
       y2="334.36"
       gradientUnits="userSpaceOnUse">
      <stop
         offset="0"
         stop-color="#2c2c50"
         id="stop3743" />
      <stop
         offset="1"
         stop-color="#434375"
         id="stop3745" />
    </linearGradient>
    <linearGradient
       id="lg5"
       x1="172.37"
       y1="286.02"
       x2="171.33"
       y2="343.08"
       xlink:href="#lg4" />
    <linearGradient
       id="lg6"
       x1="505.71"
       y1="261.55"
       x2="504.61"
       y2="322.08"
       xlink:href="#lg4" />
    <linearGradient
       id="lg7"
       x1="301.32"
       y1="260.99"
       x2="295.66"
       y2="345.9"
       xlink:href="#lg4" />
    <linearGradient
       id="lg8"
       x1="375.59"
       y1="381.01"
       x2="373.3"
       y2="507.08"
       xlink:href="#lg4" />
    <!-- Scene3 Gradient -->
    <radialGradient
       id="bg2-grad"
       cx="365.22"
       cy="500"
       r="631.74"
       gradientTransform="translate(750 552.6) rotate(180) scale(1 1.11)"
       gradientUnits="userSpaceOnUse">
      <stop
         offset="0"
         stop-color="hsla(349, 94%, 75%, 1)"
         id="stop3752" />
      <stop
         offset="0.12"
         stop-color="hsla(342, 49%, 62%, 1)"
         id="stop3754" />
      <stop
         offset="0.18"
         stop-color="hsla(328, 37%, 56%, 1)"
         id="stop3756" />
      <stop
         offset="0.33"
         stop-color="hsla(281, 33%, 48%, 1)"
         id="stop3758" />
      <stop
         offset="0.41"
         stop-color="hsla(268, 38%, 48%, 1)"
         id="stop3760" />
      <stop
         offset="0.45"
         stop-color="hsla(266, 38%, 43%, 1)"
         id="stop3762" />
      <stop
         offset="0.55"
         stop-color="hsla(261, 37%, 32%, 1)"
         id="stop3764" />
      <stop
         offset="0.64"
         stop-color="hsla(253, 36%, 24%, 1)"
         id="stop3766" />
      <stop
         offset="0.72"
         stop-color="hsla(244, 33%, 19%, 1)"
         id="stop3768" />
      <stop
         offset="0.78"
         stop-color="hsla(240, 33%, 17%, 1)"
         id="stop3770" />
    </radialGradient>
    <radialGradient
       id="fstar-grad"
       cx="1362.39"
       cy="-53.7"
       r="39.39"
       gradientTransform="matrix(0.89, -0.45, -0.45, -0.89, -473.7, 640.57)"
       gradientUnits="userSpaceOnUse">
      <stop
         offset="0"
         stop-color="#fff"
         id="stop3773" />
      <stop
         offset="0.06"
         stop-color="#fff"
         stop-opacity="0.8"
         id="stop3775" />
      <stop
         offset="0.12"
         stop-color="#fff"
         stop-opacity="0.62"
         id="stop3777" />
      <stop
         offset="0.19"
         stop-color="#fff"
         stop-opacity="0.45"
         id="stop3779" />
      <stop
         offset="0.26"
         stop-color="#fff"
         stop-opacity="0.31"
         id="stop3781" />
      <stop
         offset="0.33"
         stop-color="#fff"
         stop-opacity="0.2"
         id="stop3783" />
      <stop
         offset="0.41"
         stop-color="#fff"
         stop-opacity="0.11"
         id="stop3785" />
      <stop
         offset="0.49"
         stop-color="#fff"
         stop-opacity="0.05"
         id="stop3787" />
      <stop
         offset="0.59"
         stop-color="#fff"
         stop-opacity="0.01"
         id="stop3789" />
      <stop
         offset="0.72"
         stop-color="#fff"
         stop-opacity="0"
         id="stop3791" />
    </radialGradient>
    <linearGradient
       id="linear-gradient"
       x1="472"
       y1="461.56"
       x2="872.58"
       y2="461.56"
       gradientUnits="userSpaceOnUse">
      <stop
         offset="0"
         stop-color="#fd75a8"
         id="stop3794" />
      <stop
         offset="1"
         stop-color="#5a2d81"
         id="stop3796" />
    </linearGradient>
    <linearGradient
       id="linear-gradient-2"
       x1="214.61"
       y1="508.49"
       x2="166.09"
       y2="361.12"
       xlink:href="#linear-gradient" />
    <linearGradient
       id="linear-gradient-3"
       x1="57.65"
       y1="508.01"
       x2="448.08"
       y2="508.01"
       xlink:href="#linear-gradient" />
    <linearGradient
       id="linear-gradient-4"
       x1="193.48"
       y1="508.3"
       x2="761.05"
       y2="508.3"
       xlink:href="#linear-gradient" />
    <linearGradient
       inkscape:collect="always"
       xlink:href="#linearGradient4654"
       id="linearGradient4658"
       x1="-49.877159"
       y1="619.52368"
       x2="362.18283"
       y2="619.52368"
       gradientUnits="userSpaceOnUse" />
  </defs>
  <!-- SCENE 1 -->
  <g
     id="scene1">
    <g
       id="hills1">
      <path
         id="h1-9"
         d="M 1529.5018,526.53731 H 908.14179 v -73.53 c 10.19,-0.52 20.5,-0.36 30.05,-3.65 8.11,-2.8 15.84,-8.49 23.78,-11.33 7.94,-2.84 18.18001,1.84 25.36001,-4.85 10.81,-10.08 17.81,-25.85 32.52,-22.84 6.21,1.27 12.09,3.66 18.43,0.84 6,-2.65 9.73,-9.46 14.69,-13.54 2.87,-2.35 6.42,-3.2 9.35,-5.49 1.65,-1.28 5.45,-6.37 7,-6.92 7.94,-2.93 10.34,2.69 18.56,-3.47 6.45,-4.84 8.52,-8.21 15.45,-5 5,2.35 11.89,10.09 16,15.37 8.71,11.41 15.81,23.18 26.52,32.94 11.62,10.63 21.59,9.37 34.67,5.83 16.12,-4.37 18.32,9.06 32.24,15.28 7.45,3.32 13.23,-1.7 19.6,-2.08 3.64,-0.22 5.85,2.12 9.37,1.82 3.12,-0.27 4.08,-4.44 8.33,-3 7.32,12.31 15.75,20 28.21,20.59 14.32,0.7 27.12,0.76 39.73,-4.94 a 145.24,145.24 0 0 0 17.25,-9.03 c 8.71,-5.36 11.22,-2.82 19.35,1.5 11.66,6.21 25.31,1.08 36.56,9.18 5.53,4 8.36,12.23 14.64,14.79 4.86,2 15.59,0.38 20.4,-1.18 13.47,-4.38 21.52,-16.59 36.56,-17.33 13.57,-0.67 25.19,-4.17 39.11,-2.31 10.91,1.46 18.72,-0.1 27.63,-2.61 z"
         style="fill:url(#grad1)"
         inkscape:connector-curvature="0" />
      <path
         id="h1-8"
         d="m 1408.5821,676.30597 v -287.51 a 19.09,19.09 0 0 0 -11.54,8.17 c -2.21,3.35 -4.39,7.9 -7.92,7.69 -1.44,-0.08 -2.78,-1 -4.23,-1.08 -5.12,-0.2 -7.87,10.11 -12.84,8.66 a 2.7,2.7 0 0 0 -2.57,-3.34 c -1.49,0.1 -2.72,1.38 -3.77,2.67 a 46.94,46.94 0 0 0 -7.7,14 c -1.76,-6 -8.53,-7.93 -13.43,-5.51 -4.9,2.42 -8.31,7.76 -11.48,12.87 l -17.31,27.92 c -4.54,7.33 -11.47,15.57 -18.52,12.15 -3.38,-1.64 -5.76,-5.76 -9.32,-6.73 -3.56,-0.97 -7.55,1.64 -11.18,0.48 -5.45,-1.76 -8.37,-11.36 -14,-10.4 -3.13,0.54 -5.93,4.55 -8.87,3.14 -1.52,-0.73 -2.44,-2.76 -4,-3.36 -1.56,-0.6 -3.32,0.52 -5,1.13 -7.4,2.73 -14.16,-5.41 -21.27,-9.08 -12.35,-6.38 -26.85,1.31 -36.59,12.45 -3.1,3.54 -6,7.5 -9.78,9.89 -3.22,2 -6.88,2.8 -10.48,3.54 l -28.2,5.83 c -15,3.07 -30.14,6.2 -44.07,13.54 -6.63,3.48 -13,7.91 -19.94,10.16 -10.83,3.5 -22.26,1.5 -33.47,1.18 -9.18,-0.27 -102.20001,122.09 -140.00001,171.54 z"
         style="fill:url(#grad2)"
         inkscape:connector-curvature="0" />
      <path
         id="h1-7"
         d="m 675.16313,1056.903 0.21,-260.88001 c -0.58,-0.62 -1.15,-1.25 -1.74,-1.87 -5.67,-5.95 -12.57,-12.05 -20.78,-11.77 -8.21,0.28 -15.44,7.12 -23.74,6.87 -7.55,-0.23 -14.09,-6.33 -21.65,-6.11 -5.79,0.17 -10.74,4 -15.29,7.6 -27.02,21.36 -337.91,189.33 -482.28,266.16001 z"
         style="fill:url(#grad3)"
         inkscape:connector-curvature="0" />
      <path
         id="h1-6"
         d="m -49.87716,648.23866 v 82.33 h 412.06 c -35.38,-101.16 -98.42,-78 -131.23,-117.2 -32.36,-10.29 -64.31,-17.76 -94,-31.31 a 5.83,5.83 0 0 1 -0.41,-1 7.21,7.21 0 0 1 -3.62,0.65 c -0.21,-1.41 -0.42,-2.83 -0.64,-4.24 -2.79,0.75 -0.89,3.32 -3.9,3.95 l -1.37,-1.1 a 9.26,9.26 0 0 0 -2.34,1 h 0.12 -0.14 v 0 l -0.92,-0.27 0.07,0.15 a 23.67,23.67 0 0 1 -6.55,-2.05 l 6.48,1.9 c -1.55,-3.22 1.78,-7.31 -3.91,-7.15 -0.21,-1.94 -0.43,-3.88 -0.64,-5.82 a 11.45,11.45 0 0 0 -3.47,3.65 l -0.93,-1.37 c -1.28,1.74 -1.15,5 -4.08,2.84 l -1,0.27 c -0.33,-2.48 -0.76,-5.65 -4,-4.32 a 8.17,8.17 0 0 0 -0.7,-4.34 l -4.11,3.91 c -0.6,-0.27 -1.21,-0.5 -1.82,-0.74 a 12.42,12.42 0 0 1 -1.26,-2.53 h -1.37 a 7.91,7.91 0 0 0 -1,-4.51 18.65,18.65 0 0 0 -2.83,1.73 l 1.17,-7.63 c -3.59,0.35 -3.37,4.37 -5.21,6.67 -0.05,-1.15 -0.09,-2.3 -0.14,-3.45 -1.34,1.72 -1.11,5.49 -4.13,4.87 v -3.4 c -2.61,2.44 -0.21,7.7 -5.37,5.82 a 7.46,7.46 0 0 0 0.48,-5.37 l -2,4.83 c -6.31,-4.21 -9.12,-12.77 -16.39,-16.25 -0.1,-0.77 -0.21,-1.53 -0.31,-2.3 a 5.08,5.08 0 0 0 -0.88,1.59 35.35,35.35 0 0 0 -8.44,-3.48 c -0.71,-1.26 -2.37,-2.1 -3.57,-1.32 q -0.85,-7.06 -1.7,-14.12 a 46.56,46.56 0 0 0 -2.74,10.63 l -1.17,-3 a 15.46,15.46 0 0 0 -0.45,6.63 c -1.5,0 -3,0.08 -4.53,0.08 -0.53,-2.47 -0.42,-9.91 -4.23,-5.49 a 44.26,44.26 0 0 0 -1.56,-10.41 l -4,13.74 a 44,44 0 0 1 -3,-8.85 l -1.35,0.55 a 39.63,39.63 0 0 0 -1.85,-10.68 47.8,47.8 0 0 0 -2.47,5.58 l -0.24,-19.43 c -4.18,4.6 -2.3,13 -3.9,18.92 -0.26,-2.83 -0.51,-5.66 -0.77,-8.49 -0.51,4.12 -0.73,8.28 -1.38,12.38 -0.64,-0.11 -1.28,-0.19 -1.93,-0.26 l -0.43,-6.63 a 32.55,32.55 0 0 0 -0.91,6.45 c -1.11,-0.09 -2.24,-0.15 -3.37,-0.19 -0.12,-1 -0.26,-1.94 -0.45,-2.9 -0.08,1 -0.16,1.91 -0.25,2.87 -19.76,-2.69 -34.56,-16.84 -55,-21.54 z"
         style="fill:url(#linearGradient4658);fill-opacity:1"
         inkscape:connector-curvature="0" />
      <path
         id="h1-5"
         d="m 212.71284,695.44866 c -7.78,-5.38 -17.22,-7.93 -25.57,-12.43 -14.59,-7.87 -25.69,-21.55 -39.79,-29.71 l -0.42,-3.55 a 7,7 0 0 0 -1.09,2.71 51.13,51.13 0 0 0 -7.74,-3.43 7.19,7.19 0 0 0 -0.31,-1.19 c -0.62,-1.64 -2.43,-2.82 -3.72,-1.84 q -0.84,-8.26 -1.69,-16.51 a 62.62,62.62 0 0 0 -2.73,12.43 l -1.17,-3.48 a 19.73,19.73 0 0 0 -0.56,6.46 c 0.05,0.58 0.12,1.19 0.13,1.79 -1.51,-0.21 -3,-0.39 -4.55,-0.53 q -0.42,-3 -0.82,-6 a 2.73,2.73 0 0 0 -0.59,-1.63 c -0.88,-0.85 -2.11,0.31 -2.8,1.37 a 60,60 0 0 0 -1.47,-12.2 q -2,8 -4,16.06 a 58.3,58.3 0 0 1 -3,-10.35 l -1.34,0.65 a 53.76,53.76 0 0 0 -1.85,-12.48 59.91,59.91 0 0 0 -2.46,6.52 l -0.24,-22.71 c -1.52,0.77 -1.93,3 -2.12,5 l -1.77,17.15 -0.78,-9.93 -1.200004,13.51 c -0.13,1.39 -0.82,3.26 -2,2.83 -0.2,-3.29 -0.41,-6.58 -0.61,-9.86 a 44.38,44.38 0 0 0 -0.86,12.34 18.5,18.5 0 0 1 -0.07,5.66 5.13,5.13 0 0 1 -0.41,1.11 c -0.92,-0.17 -1.85,-0.33 -2.77,-0.53 a 62.45,62.45 0 0 0 -0.61,-14.65 q -0.52,7.14 -1.06,14.28 l -1.91,-0.44 a 14.36,14.36 0 0 0 -1.77,-3.85 c -0.07,1.13 -0.17,2.25 -0.28,3.38 -2.83,-0.7 -5.64,-1.49 -8.440004,-2.33 a 46.58,46.58 0 0 1 -0.7,-7.73 c 0,-2.21 0.08,-4.65 -1.13,-6.35 q -1.16,5.75 -2.32,11.5 l -2.94,-5.22 a 10.84,10.84 0 0 1 -1.43,2.94 70.76,70.76 0 0 1 -2.06,-19.48 5.51,5.51 0 0 0 -0.28,-2.47 c -0.34,-0.74 -1.22,-1.21 -1.81,-0.72 a 2.32,2.32 0 0 0 -0.58,1.35 c -0.62,3.45 -0.58,7.51 -2.89,9.76 a 71.71,71.71 0 0 0 -2.09,-7.57 c -2.17,0.41 -0.33,6 -2.51,6.33 a 2.8,2.8 0 0 1 -1.22,-0.29 c -1.88,-0.61 -4.05,0.95 -4.43,3.18 a 36.92,36.92 0 0 0 -1.49,-5.48 c -1,1 -1.37,2.63 -1.93,4.05 -0.56,1.42 -1.61,2.84 -2.94,2.73 -1.18,-0.09 -2,-1.43 -2.29,-2.79 a 16.05,16.05 0 0 1 0.11,-4.15 24,24 0 0 0 -1.22,-9.68 q -1.32,6.12 -2.65,12.23 a 2.46,2.46 0 0 1 -0.84,1.52 l -1,-0.49 a 3.24,3.24 0 0 1 -0.19,-0.52 q -0.7,-2.39 -1.39,-4.77 a 4.89,4.89 0 0 0 -3.28,2.8 q -2.15,-1.11 -4.28,-2.25 c -0.4,-1.45 -0.1,-3.37 -0.22,-5 a 14.5,14.5 0 0 0 -1.82,-5.32 28.44,28.44 0 0 1 -1.43,8.47 c -11.66,-6.3 -23.87,-12.92 -37.13,-12.57 -28.04,0.74 -47.2,31.67 -74.5,36.12 v 123.62 H 252.97284 c -11.53,-24.85 -34.68,-63.51 -40.26,-67.37 z"
         style="fill:url(#grad5)"
         inkscape:connector-curvature="0" />
      <path
         id="h1-4"
         d="m 615.42284,742.82866 v -67.95 c -32.59,-68.73 -53.56,-58.59 -101.56,-92.59 -0.14,-1 -0.27,-2 -0.41,-3 a 5.36,5.36 0 0 0 -1.09,2.31 56.55,56.55 0 0 0 -7.75,-2.93 c -0.19,-1.82 -2.36,-3.63 -4,-2.59 q -0.85,-7 -1.7,-14.08 a 46.81,46.81 0 0 0 -2.73,10.6 l -1.16,-3 a 16.62,16.62 0 0 0 -0.43,7.05 c -1.51,-0.19 -3,-0.33 -4.56,-0.46 -0.51,-2.46 -0.45,-9.74 -4.2,-5.36 a 44.16,44.16 0 0 0 -1.47,-10.41 q -2,6.86 -3.95,13.71 a 44,44 0 0 1 -3,-8.83 l -1.35,0.55 a 39.72,39.72 0 0 0 -1.84,-10.65 45.84,45.84 0 0 0 -2.46,5.56 l -0.25,-19.38 c -4.16,4.58 -2.3,13 -3.88,18.87 l -0.78,-8.47 c -1.32,4 0.82,12.1 -3.16,13.94 -0.21,-2.81 -0.41,-5.61 -0.62,-8.41 -2,5.29 0.27,11.14 -1.33,16.31 -0.93,-0.15 -1.85,-0.29 -2.77,-0.45 a 45.62,45.62 0 0 0 -0.61,-12.51 q -0.54,6.09 -1.06,12.18 l -1.91,-0.37 a 11.76,11.76 0 0 0 -1.77,-3.29 c -0.07,1 -0.17,1.93 -0.28,2.89 -2.83,-0.6 -5.65,-1.27 -8.44,-2 -1.27,-3.84 0.32,-8.58 -1.83,-12 l -2.33,9.81 -2.94,-4.46 a 8.34,8.34 0 0 1 -1.43,2.51 c -3.72,-8.44 0.44,-31.59 -7.61,-9.86 a 56,56 0 0 0 -2.1,-6.46 c -2.55,9.5 -4.65,1.59 -8.16,7.87 a 27,27 0 0 0 -1.58,-4.65 c -7.5,13.85 -6.56,-1.79 -8.28,-8.39 -1.32,3.76 -1.37,8.43 -3.48,11.73 l -1,-0.42 c -0.6,-1.47 -1,-3 -1.58,-4.51 a 4.75,4.75 0 0 0 -3.27,2.39 l -4.28,-1.92 c -0.37,-2.95 0,-6.25 -2,-8.82 a 21.06,21.06 0 0 1 -1.44,7.23 c -49.29,-34.29 -86.85,28.8 -137.17,20.71 l -0.24,-2.24 a 17.27,17.27 0 0 0 -0.38,2.34 c -0.65,0.1 -1.29,0.21 -1.93,0.33 a 12.8,12.8 0 0 0 -0.56,-4.29 c -0.12,1.36 -0.25,2.72 -0.37,4.08 -2.29,-0.67 -1.19,-4.81 -1.93,-6.76 -0.15,1.37 -0.31,2.74 -0.47,4.1 -0.93,-2.87 0.08,-7.13 -2.36,-9.15 l -0.15,9.4 a 22.45,22.45 0 0 0 -1.5,-2.7 16.09,16.09 0 0 0 -1.12,5.17 l -0.82,-0.27 a 18.83,18.83 0 0 1 -1.62,3.93 l -0.28,0.12 q -1.16,-3.21 -2.32,-6.41 a 17.14,17.14 0 0 0 -0.89,5.05 c -2.66,-2.43 -2.31,2.71 -2.89,4.27 l -0.58,-0.55 c -2.76,1.71 -1.29,-3 -2.12,-4.32 l -0.71,1.44 a 18.49,18.49 0 0 0 -1.66,-5.14 c -0.34,2.28 -0.68,4.55 -1,6.83 -4.21,-0.74 -1.58,5.19 -3,7.44 l -0.64,0.42 a 6.89,6.89 0 0 0 -1.31,-1.72 l -0.93,1 c -1.73,-1.42 -0.31,-4.09 -1.9,-5.61 l -0.84,4.95 a 3.65,3.65 0 0 1 -2.09,-1.59 c -0.19,0.78 -1.24,5.51 -2.26,9.24 l -8.66,5.85 a 65.51,65.51 0 0 1 -1.3,-8.18 c 0,2.68 -2,7.92 -2.88,11 l -3.06,2.07 c -1,-3.79 -2.06,-7.14 -2.86,-7.28 -0.47,1.36 -1.07,8.89 -1.53,10.25 l -1.7,1.15 c -0.87,-4.35 -1.81,-9.29 -2.35,-11.4 -0.83,2 -0.58,8.93 -0.31,13.19 l -5.71,3.87 c -0.65,-2.27 -1.49,-5.21 -2.16,-5.78 -0.66,1.48 -0.89,5.65 -1.27,7.23 -4.69,-4 -3.69,5.18 -7.43,-5.62 a 53.47,53.47 0 0 0 -2.09,6.46 c -8.06,-21.78 -3.89,1.47 -7.62,9.86 a 8.34,8.34 0 0 1 -1.43,-2.51 l -2.98,4.48 -2.32,-9.81 c -2.32,4.54 -0.48,10.52 -2.67,15.35 -12.35,7.5 -87.61,76.23 -133.54,112.42 z"
         style="fill:url(#grad6)"
         inkscape:connector-curvature="0" />
      <!-- <g id="info">
          <polygon id="arrow" points="353.93 368.91 356.06 366.79 374.26 385 392.47 366.79 394.59 368.91 374.26 389.24 353.93 368.91" fill="#fff" stroke="#231f20" stroke-miterlimit="10" stroke-width="0.5" />
          <path id="text" d="M261.62,345.74c8.46,7,22.53-4.51,8.16-9.84-17.91-5.31-3.78-24.1,9.06-16.36L277.69,323c-8.32-5.73-19.5,5.41-5.8,9.55,18.58,6.42,2.18,25.66-11.33,16.74ZM302.54,350c-23.47,10.27-23.65-31.11.1-21.64l-1,3.27c-17.3-7.88-16.61,23.5.14,15.21Zm4.94-15.11c0-2.74,0-5.09-.19-7.25H311l.14,4.56h.19c1.19-3.52,4.35-5.66,7.63-4.94v4c-10.08-1.88-6.76,14-7.29,19.63h-4.18ZM343.71,339c.06,16.73-23.06,16-22.7.39C320.43,323.17,344.34,323.23,343.71,339Zm-18.43.24c-.33,11.66,14.44,11.71,14.11-.09C340.37,327.86,324.33,327.6,325.28,339.26ZM349,316.76h4.22v34.07H349Zm11.32,0h4.23v34.07h-4.23ZM382,318.92c35.43-9.2,34.89,39.64,0,31.81Zm4.18,28.6c23.33,5.69,24.08-31.95,0-25.53ZM435,339c.06,16.73-23.06,16-22.7.39C411.73,323.17,435.64,323.23,435,339Zm-18.43.24c-.33,11.66,14.43,11.71,14.11-.09C431.67,327.86,415.63,327.6,416.58,339.26Zm25.09-11.66c1.21,4.84,3.94,14.5,4.8,19.2h.15c1-4.69,4.38-14.43,5.85-19.2H456c1.44,4.8,4.69,14.59,5.66,19.2h.15c.7-4.59,3.81-14.45,5.08-19.2h4.18l-7.49,23.23h-3.84c-1.53-5-4.6-13.66-5.61-18.72h-.1c-1,5.17-4.22,13.71-5.85,18.72h-3.84l-7-23.23Zm33.63,6.29c0-2.4,0-4.37-.19-6.29h3.75l.24,3.84h.09c14.6-14.27,17.39,7,15.88,19.39h-4.22c-1-5.08,3.26-20.32-5.37-20.25-9.13,0-5.12,15-6,20.25H475.3Z" fill="#fff" stroke="#231f20" stroke-miterlimit="10" stroke-width="0.5" />
        </g> -->
      <path
         id="bird"
         style="opacity: 0;"
         d="M110.61,428.6c-2.5,2.06-13.64-.79-17.86.84,0,0,1-2.72,2-2,0,0-.12-1.36-1.07-1.21a3.73,3.73,0,0,0-3.88.79s-1.65-.58-2.32-.24c0,0-5.63-5.13-9.77-9.69S65.91,410,64,403.62c0,0-.81,2.45,2.63,6.06,0,0-5.81-5-6.19-7.68a10.73,10.73,0,0,0,4,7.44c-1.93-1.61-3.54-3.69-5.54-5.23l0-.06a.28.28,0,0,0,0,.06c0,1.75,2,3.92,3.22,5.57-1.37,0-4.53-5.34-4.08-3.26a2.1,2.1,0,0,1-.13-.26,13.7,13.7,0,0,0,2.74,4.58c-.53-.07-1.69-1.6-1.86-.88a1.19,1.19,0,0,1-.09-.15c-.16,0,1.38,4.78,4.17,6.74-3-.23,4,4.44,5.37,4.34.4,1.4,3.53,3.2,3.86,4.5,2.33,2.76,4.63,7.07,8.58,8,.46,3.8-10.7,6-4.75,7.88a2.43,2.43,0,0,0,2.36,1.48c.2,1,1.59,1.14,2.38.73.3.49,1.61,2,2,1.31a29.91,29.91,0,0,1,2.58-7.4c.48-.2.89-.53,1.37-.71-.47,1.42,2.28-.32,3-.38a50.42,50.42,0,0,0,11-1.25c.85.59,2.52,1.46,2.37-.34,1.23,1.09,4.19,1,1.77-1a3.33,3.33,0,0,0,2.63,0,6.86,6.86,0,0,1-1.71-1.15c1.88.38,6.14-.19,2.11-1.38A3.77,3.77,0,0,0,110.61,428.6Z"
         fill="#16122b" />
      <path
         id="h1-3"
         d="m 504.49284,744.88866 v -91.11 c -33.51,-10.65 -62.1,-50.46 -98.56,-20.79 a 25.07,25.07 0 0 1 -1.27,-7.47 c -1.85,2.68 -1.48,6.14 -1.8,9.12 -1.25,0.67 -2.51,1.33 -3.77,2 a 4.34,4.34 0 0 0 -2.9,-2.48 c -0.47,1.55 -0.86,3.14 -1.39,4.67 l -0.86,0.44 c -1.9,-3.54 -1.9,-8.23 -3.08,-12.14 -1.52,6.24 -0.48,23.06 -7.3,8.68 a 32,32 0 0 0 -1.39,4.78 c -3.06,-6.27 -5.18,1.34 -7.2,-8.14 a 62.77,62.77 0 0 0 -1.85,6.68 c -7.05,-22.33 -3.46,2 -6.72,10.2 a 9,9 0 0 1 -1.26,-2.6 q -1.31,2.31 -2.6,4.62 -1,-5.08 -2,-10.15 c -1.91,3.59 -0.5,8.47 -1.62,12.42 -2.47,0.74 -5,1.44 -7.45,2.06 -0.1,-1 -0.18,-2 -0.24,-3 a 12.6,12.6 0 0 0 -1.56,3.41 l -1.69,0.38 q -0.46,-6.3 -0.94,-12.6 a 54.83,54.83 0 0 0 -0.53,12.93 c -0.82,0.17 -1.64,0.31 -2.45,0.47 -1.42,-5.4 0.55,-11.39 -1.18,-16.87 l -0.54,8.7 c -3.64,-2.23 -1.56,-10.31 -2.79,-14.41 l -0.69,8.75 c -1.43,-6.09 0.32,-14.52 -3.43,-19.51 l -0.21,20 a 53.6,53.6 0 0 0 -2.18,-5.75 47.85,47.85 0 0 0 -1.62,11 l -1.19,-0.57 a 51.53,51.53 0 0 1 -2.64,9.14 q -1.74,-7.1 -3.49,-14.18 a 53.84,53.84 0 0 0 -1.33,10.82 c -3.5,-4.54 -3.22,3.32 -3.7,5.54 -1.35,0.13 -2.69,0.28 -4,0.47 a 20.24,20.24 0 0 0 -0.39,-7.28 l -1,3.07 a 55.47,55.47 0 0 0 -2.42,-11 q -0.74,7.29 -1.49,14.57 c -1.51,-1.13 -3.44,1 -3.55,2.68 a 46,46 0 0 0 -6.84,3 6.2,6.2 0 0 0 -1,-2.39 c -0.12,1 -0.24,2.09 -0.37,3.13 -34.54,30.71 -61.91,27.5 -84.12,78.71 z"
         style="fill:url(#grad7)"
         inkscape:connector-curvature="0" />
      <path
         id="h1-2"
         d="m 459.23284,370.62546 c 5.16,-4.18247 -11.74,0.48516 1.39,-6.80906 3.06,-3.68057 -10.55,0.42661 -5.45,-4.78474 1.87,-1.89048 -3.86,-1.73154 -1.53,-3.60529 2.18,-3.07829 -5.58,-0.4768 -5.2,-3.42962 0.27,-2.45929 5.63,-1.36349 5.89,-3.78932 -1.27,-1.13763 -8.66,-0.61064 -3.81,-3.58855 0.78,-0.53536 0.63,-1.61444 -0.49,-1.47223 -11.28,0.76957 7.41,-4.46688 -5.09,-4.18247 -0.07,-6.20678 -4,-6.93453 -4,0.35969 -2.15,-0.0502 -6.11,0.40152 -2.34,2.31709 6.88,3.43799 -6.21,-0.76121 -0.09,5.23645 -9.68,-0.37642 2.22,3.3878 -1.66,5.53759 -6.42,-0.60228 1,2.5513 -0.35,4.18246 -2.22,-0.092 -9.69,-1.97412 -6.67,1.7901 1.41,0.90341 5.44,1.39694 4.16,3.50491 -14,0.29277 -1.69,-2.75207 -6.22,-4.31631 -9.47,0.15057 3.15,-4.04863 1.85,-6.46609 -9.62,0.22585 -4.67,-0.76121 -7.3,-6.8007 2.83,-3.9817 -13.74,0.77794 0.69,-7.21893 -5.13,-1.91557 -6.41,0.26767 -3.61,-4.96041 -11.85,0.67756 5.66,-4.50034 -5.78,-4.30794 0.15,-5.93074 -4.22,-6.59993 -4,0.36806 -2.15,-0.0586 -6.11,0.39315 -2.34,2.30872 6.88,3.43799 -6.2,-0.76121 -0.09,5.24481 -9.68,-0.38479 2.23,3.34597 -1.66,5.52922 -6.41,-0.60227 1,2.55967 -0.35,4.18247 -14.1,-1.32166 -4.48,0.90341 -2.41,5.16953 -0.74,1.67299 -7.34,-0.83649 -3.91,2.23344 6.41,2.82734 -1.72,3.6973 -4.8,1.99085 1.12,-3.77258 -12.53,0.35969 -0.71,-5.58777 -12.2,-0.77794 6.29,-4.18247 -5.76,-3.95662 -5.54,-2.10796 8.3,-3.09502 -0.69,-4.37486 -5.84,-1.6228 4.42,-2.90263 0.4,-4.04863 -1.22,0.25932 -3.76,-0.13384 -2.87,-1.53915 6.91,-1.73154 -0.72,-1.18782 -0.68,-3.28741 4.92,-1.43877 -0.21,-1.36349 -0.26,-2.9361 4.44,1.12927 -1.94,-11.7109 -3.67,-2.65168 -0.8,1.91557 -5.49,0.76121 -1.55,3.21213 2.52,3.29579 -2.5,1.04562 -3.25,2.50948 4.7,5.01896 -1.57,1.83192 -1.09,4.83494 3.53,3.34597 1.11,2.63495 -2.25,2.78552 2.61,3.34597 2.08,6.87598 -3.68,4.78474 -1.62,-1.39694 4.32,-3.26232 0.4,-3.71403 -10.78,0.35969 6.22,-5.33683 0.89,-6.69195 -7.78,0.96197 -3.82,-0.43497 -6.33,-6.59156 2.17,-3.0783 -5.59,-0.48517 -5.2,-3.42963 0.31,-2.25853 4.62,-1.52242 5.73,-3.22886 0.94,-2.21671 -9.36,-0.60228 -3.66,-4.18247 2.7,-3.04484 -6.79,0.46007 -3.65,-3.06993 5,-1.67299 1.56,-2.65168 -1.92,-2.60986 -0.54,-0.22585 0.63,-7.07673 -3.55,-4.11555 1.75,7.44479 -7.66,2.97792 -2.78,6.80069 6.88,3.43799 -6.21,-0.76957 -0.09,5.23645 -9.68,-0.37642 2.22,3.34598 -1.66,5.53759 -6.42,-0.61064 1,2.50948 -0.35,4.18247 -14.11,-1.32166 -4.48,0.90341 -2.41,5.17789 -0.82,1.30493 -3.05,0.28441 -4.45,0.4768 -1.81,1.57261 8.35,5.12771 -0.87,4.63418 7.65,-4.75965 -10,0.4768 -0.46,-7.31932 -5.45,-1.46387 -6.32,-1.43041 -1.64,-5.1528 -2.69,-1.7901 -5.64,0.56881 -2.42,-4.55053 -2.48,-0.10874 -4.29,0.41825 -1.67,-2.06613 0.2,-2.14143 -4.21,-0.10038 -0.81,-3.59693 -4,-0.79467 -2.86,-0.55208 -1.28,-3.16194 -4.36,-0.56882 -3.26,-7.77103 -5.9,-0.37642 -1.69,0.35132 -0.32,1.67298 0.9,1.27983 -0.32,1.01216 -3.28,1.43877 -0.2,2.17488 -0.13,1.43877 -5.33,1.42204 -0.51,2.44257 0.67,1.04561 -1.22,1.33838 -2.13,1.14599 -3,0.83649 4.64,1.79846 0.3,3.01138 -7,1.07907 3.64,1.67298 -0.51,3.23723 -9,-0.15057 4.78,2.35891 -4.28,2.94445 11,5.61287 -6.38,0.25932 1.4,5.32847 -0.76,1.67298 -6.41,-0.96197 -5.09,1.52242 2.32,0.70265 4.11,1.88211 0.87,2.90263 -4.11,0.90341 -2,1.4555 -3.25,-0.51863 -6.34,0.20912 3.67,-3.15358 0.53,-3.93988 -5.43,0.83649 -1.73,-1.59771 -3.33,-2.80226 -0.68788,-0.008 -0.96204,-0.74723 -0.4,-1.07907 0.24,-2.31709 -7.7,-0.71102 0.31,-3.92316 0.55,-1.31329 -5.52,-0.35969 -2.15,-2.45092 1.59,-1.79846 -4,0.26768 -2.16,-1.80683 3,-0.98706 0.92,-1.56424 -1.13,-1.53915 -0.32,-0.13383 0.37,-4.18246 -2.09,-2.42583 1,4.66764 -4.69,1.46387 -1.64,4.00681 3.93,1.95739 -3.67,-0.34297 -0.05,3.08666 -5.7,-0.22586 1.3,1.99922 -1,3.26232 -3.78,-0.35969 0.56,1.50569 -0.21,2.46766 -7.14,-0.8365 -3.36,0.46007 -1.4,3.01137 -20.82,-4.53379 15.55,-7.10183 -9.78,-11.99531 -1,-3.4129 4.92,-4.18247 6.1,-6.98472 -2.57,-3.97335 -11.79,3.03647 -4.62,-8.69117 -4.74,-0.20912 -8.2,0.83649 -3.19,-3.94825 1,-4.39159 -8.31,0.69429 -1.55,-6.85924 -0.43,-1.89884 -3.52,0 -4.8,-0.63574 -3,-1.77337 3.41,-4.18247 2.35,-5.40375 -8.43,-0.67756 -5.66,-15.5755 -11.26,-0.71938 -3.23,0.67756 -0.61,3.12848 1.71,2.43419 -0.06,2.19162 -7.33,2.16652 -0.37,4.18247 1.16,2.27526 -5.59,1.26311 -4.85,3.40453 0.49,1.12927 2.93,0.34296 3.88,1.25474 1.26,1.98249 -2.34,2.55967 -4.07,2.18325 -5.69,1.63116 8.86,3.42962 0.58,5.74671 -12.17,1.58934 6.57,3.41289 -1,6.19841 -17.71,-0.83649 8.72,5.61288 -6.76,4.88513 -6.41,-1.765 -7.5,-1.67299 -1.94,-6.11477 -3.15,-2.18325 -6.72,0.90341 -2.86,-5.37029 -2.94,-0.12547 -5.08,0.49353 -2,-2.44256 0.43,-2.65168 -5.08,0.21749 -1,-4.24102 -4.84,-1.07908 -3.61,-0.38479 -1.52,-3.73913 -2.94,-0.092 -2.83,-2.20834 -4,-3.93152 -3,-1.92393 -1.29,2.96119 -2.94,3.48818 -2,0.41825 -0.38,1.9323 1.06,1.50569 0,1.35512 -4.53,1.33839 -0.23,2.5764 0,1.74827 -6.51,1.54751 -0.6,2.8859 0.78,1.22128 -1.45,1.58097 -2.52,1.34676 -3.52,1.01215 5.48,2.12469 0.36,3.55509 -7.81,1.11254 4.22,1.97413 -0.61,3.83114 -10.59,-0.17566 5.65,2.78553 -5,3.47982 10.45,5.40374 -0.72,1.52241 -0.83,4.66763 8.72,3.83114 -6.19,0.43498 -3.48,3.46308 7.92,2.84408 -3.1,4.07373 -2.53,0.66083 -6.34001,-0.0669 3.86,-2.98628 0.78,-3.91479 -4.16,0.8365 -2.76,-2.0996 -3.48,-4.04026 0.07,-2.45093 -7.44001,-0.59391 0.56,-3.89806 0.63,-1.2882 -5.48001,-0.60228 -2.00001,-2.50948 1.70001,-1.72318 -4,0.10038 -2,-1.89884 3.00001,-0.83649 1,-1.51405 -1,-1.58097 -0.31,-0.15057 0.64,-4.18247 -1.93,-2.50948 0.74,4.70109 -4.78,1.2631 -1.89,3.93152 3.79,2.11632 -3.64,-0.5019 -0.26,3.07829 -5.67,-0.46843 1.18,2.04941 -1.18,3.21214 -3.75,-0.51863 0.47,1.53078 -0.36,2.45929 -10.47,-2.31709 3.15,3.99844 -4.25,3.15358 4.88,4.87675 -10.67,0.90341 -1.94,-3.10339 -2.69,-1.7901 -5.64,0.56045 -2.41,-4.55053 -2.49,-0.10874 -4.3,0.41825 -1.68,-2.06614 0.2,-2.14142 -4.21,-0.10038 -0.8,-3.59692 -4.11,-0.76957 -2.8,-0.61064 -1.29,-3.16194 -2.48,-0.0753 -2.39,-1.86538 -3.41,-3.34598 -2.53,-1.62279 -1.09,2.50948 -2.49,2.95283 -1.69,0.35969 -0.32,1.67298 0.9,1.27983 -4.38,2.62659 2.56,1.67299 -1.38,3.11176 -4.45,0.619 4.45,2.09959 -0.9,2.68514 0.38,-1.94903 -7.66,0.51863 -4.27,-3.0532 1.35,-1.38022 -2.69,-1.22128 -1.17,-2.58477 1.84,-2.25853 -4,-0.42661 -3.7,-2.55967 0.21,-1.79009 4.1,-0.97033 4.3,-2.73533 -0.91,-0.83649 -6.31,-0.48517 -2.76,-2.62659 2,-2.20834 -5,0.3095 -2.65,-2.2418 0.73,-0.39315 2.22,-0.54372 1.93,-1.43041 -6.38,0.18403 -1.28,-5.31173 -5.87,-3.48817 -1.08,0.76121 0.93,2.55967 -0.35,3.26232 -1.56,-0.0418 -4.45,0.26768 -1.71,1.67299 4.85,2.44256 -4.53,-0.45171 -0.09,3.81441 -7,-0.3095 1.6,2.50948 -1.23,4.02353 -6.21,-0.40151 5.52,4.63418 -3.69,2.66842 1.39,-0.31787 1.75,-2.14979 -0.11,-1.94067 -10.78,0.35969 6.22,-5.33683 0.89,-6.69195 -7.78,0.93688 -3.8,-0.32623 -6.34,-6.5832 2.84,-3.98171 -13.74,0.77794 0.7,-7.2273 -5.14,-1.90721 -6.42,0.27604 -3.61,-4.95204 -1.49,-0.15894 -6.09,0.83649 -3.86,-1.67299 5,-1.67299 1.56,-2.65169 -1.92,-2.60986 -0.54,-0.22585 0.63,-7.07673 -3.55,-4.11555 1.74,7.36951 -7.58,3.01974 -2.78,6.79233 6.88,3.43799 -6.21,-0.76121 -0.09,5.24481 -9.68,-0.38478 2.22,3.34598 -1.66,5.52922 -6.42,-0.60227 1,2.55131 -0.35,4.18247 -14.11,-1.31329 -4.48,0.91178 -2.41,5.1779 -7.27,1.75663 -5,-0.30114 -1.57,4.27448 -2.6,2.64332 -9.48,-2.64332 -9.41,2.01595 -10.51,-3.50491 11.08,-3.58856 -4.83,-7.18548 9.59,-10.79077 -5.12,0.36805 0.92,-9.69496 -2.94,-0.13384 -5.08,0.49353 -2,-2.44256 0.43,-2.65169 -5.08,0.21749 -1,-4.24939 -0.26,-1.17109 -2.17,0 -3,-0.39315 1.94,-6.20678 0.17,-0.83649 -2.57,-7.27749 -3,-1.91557 -1.29,2.96955 -2.94,3.49654 -2,0.40988 -0.38,1.9323 1.06,1.49732 0,1.36349 -4.54,1.33839 -0.23,2.5764 0,1.765 -6.51,1.54751 -0.6,2.8859 0.83,1.67299 -2,1.2882 -3.16,1.43877 0.2,2.67678 6.63,1.75664 -1.44,4.10719 -2.72,0.0669 -2.75,-0.8365 -1.54,-2.67678 -1.58,0 -2.71,0.0837 -1.09,-1.35512 0.13,-1.39695 -2.76,-0.0669 -0.53,-2.35055 -2.61,-0.57718 -2,-0.25931 -0.84,-2.0745 -1.63,-0.0502 -1.57,-1.22128 -2.24,-2.17489 -0.85,-1.0958 -2.94,3.62202 -1,2.7688 -0.2,0.66083 -2.14,0.93687 -0.12,1.42204 -0.1,0.94523 -3.49,0.93687 -0.34,1.5977 0.44,0.68592 -0.8,0.83649 -1.39,0.75284 -2,0.55209 3,1.17109 0.2,1.96576 -4.46,0.59391 2.3,1.15436 -0.34,2.1247 -5.46,-0.24259 2.79,1.67298 -2.8,1.92393 5.29,2.75206 0.61,0.70266 -0.46,2.58477 3.17,1.43876 -0.49,1.30493 -2.07,1.16272 5.62,-3.27069 -10.059994,-1.97412 -5.479994,-5.91401 10.209994,-5.17789 -11.14,-2.75206 1.249994,-9.86225 -3.089994,-2.62659 -7.739994,1.37184 -3.199994,-6.05622 -3.3,-0.15057 -5.7,0.55209 -2.22,-2.7437 0.48,-2.98628 -5.71,0.24259 -1.07,-4.76801 -9.55,-1.35512 1.9,-3.52164 -2.79,-4.4836 -2.68,0.34296 -3.9,-8.45695 -5.79,-2.84408 1,2.19998 -4.89,4.31631 0.23,4.31631 0,1.52241 -5.09,1.50568 -0.25,2.89426 -0.06,1.97413 -7.33,1.73991 -0.68,3.2456 0.88,1.38021 -1.62,1.77336 -2.83,1.51405 -4,1.13763 6.16,2.38401 0.4,3.99844 -8.86,1.23801 4.77,2.23344 -0.68,4.30794 -11.9,-0.20076 6.35,3.12849 -5.68,3.89806 0.18,1.89047 5,0.89505 4.84,2.93609 -1.91,2.45093 -10.39,-0.60227 -3,4.18247 -1,2.16652 -8.59,-1.2882 -6.69,2.05777 3.11,0.89505 5.31,2.50948 1.09,3.81441 -1.048829,0.04 -2.062065,0.33024 -2.92,0.8365 -21,-3.96498 14.24,-7.82958 -10.31,-12.11243 -1,-3.41289 4.92,-4.22429 6.1,-6.98472 -2.56,-3.97334 -11.79,3.03647 -4.61,-8.69117 -4.75,-0.20912 -8.21,0.8365 -3.2,-3.93988 1,-4.39996 -8.3,0.68592 -1.54,-6.86761 -0.43,-1.89884 -3.52,0 -4.81,-0.63574 -3,-1.77336 3.41,-4.18246 2.36,-5.40374 -4.75,-0.14221 -4.58,-3.57183 -6.52,-6.35735 -4.83,-3.08666 -2.08,4.78474 -4.75,5.63796 -3.22,0.67756 -0.61,3.12849 1.72,2.4342 -0.06,2.19161 -7.34,2.16652 -0.37,4.18246 1.15,2.27527 -5.6,1.26311 -4.86,3.40453 4.29,0.74448 5.93,3.89806 -0.19,3.43799 -5.69,1.63116 8.86,3.42962 0.58,5.74671 -12.17,1.58934 6.58,3.41289 -1,6.19005 -17.619996,-0.10874 9.56,4.30794 -8.17,5.62124 0.26,2.71024 7.15,1.27983 7,4.18247 -3.2,3.6973 -14.499996,-1.23801 -4.37,6.06457 -16.759996,-2.31708 6.36,-5.08588 -8.619996,-7.83794 9.599996,-10.79913 -5.11,0.35969 0.92,-9.70332 -2.93,-0.13384 -5.07,0.49353 -2,-2.44257 0.42,-2.65168 -5.09,0.21749 -1,-4.24102 -0.27,-1.17945 -2.18,0 -3,-0.39315 1.94,-6.22351 0.21,-0.83649 -2.57,-7.27749 -3,-1.92394 -1.29,2.96119 -2.93,3.48818 -2,0.40988 -0.39,1.9323 1,1.50568 0,1.35512 -4.5399998,1.33003 -0.22,2.5764 -0.06,1.75664 -6.51,1.53915 -0.61,2.88591 0.84,1.67298 -2,1.2882 -3.1499998,1.4304 -0.41,2.4342 6.9999998,1.80683 -1.2000002,3.95661 3.83,-2.50948 -3.3,-2.50948 -0.93,-4.70945 3.08,-3.52164 -12.45,-0.68593 -2.84,-5.75508 1.45,-0.32623 3.53,-0.68592 3.6,-2.12469 -0.71,-1.56425 -6.8,0.26768 -5.71,-2.75207 3.43,-2.15815 1.75,-3.23723 -1.85000002,-2.45929 C -0.27716,255.35666 1.5656758,471.872 1.5256758,500.38807 L 473.93985,498.04713 c 5.92,-3.77258 -1.87701,-121.05596 -14.70701,-127.42167 z m -447.88,-93.68727 c -1.3599998,0.092 -3.05,-0.74448 -3,-1.88211 0.6,0.71939 3.67,0.40152 3,1.88211 z m 107.46999,15.34966 c 0.12,0 0.22,0.0836 0.33,0.11711 2.56,1.73154 -3.34,1.53914 -0.33,-0.12548 z m -1.9,-2.23344 c -0.32,-1.03725 1.32,-1.38021 1.88,-2.09123 5.95,1.60606 1.67,3.60528 -1.88,2.08286 z m 77.12,26.56703 c 0.12,-0.61064 1.62,-1.85701 2.09,-1.02052 0.47,0.83649 -1.24,1.27147 -2.09,1.01216 z m -0.49,-1.99085 c -3.46,-0.49353 -0.05,-2.62659 1.48,-3.22887 5.58,1.50569 -1.64,1.69808 -1.48,3.2205 z m 65.81001,14.27057 c 0.27265,0.0833 0.5263,0.20496 0.75,0.3597 -0.36,0 -0.7,-0.0167 -0.75,-0.36806 z m 2.37,-3.34597 c -1.58,-0.83649 -3.82,-0.83649 -5.46,-1.48059 -4.8,-6.2737 15.9,-0.35969 5.46,1.48059 z m 129.74,30.84988 c -0.10357,-0.29003 0.0742,-0.59829 0.41,-0.71102 -0.35,0.31787 0.08,1.54751 -0.41,0.71102 z m 39.5,9.6364 h 1.5 c -0.15,0.52699 -1,0.008 -1.48,0.0251 z"
         style="fill:#000000;stroke-width:0.91460013;fill-opacity:1"
         inkscape:connector-curvature="0"
         sodipodi:nodetypes="ccccccccccccccccccccccccccccccccccccccccccccccccccccccccccccccccccccccccccccccccccccccccccccccccccccccccccccccccccccccccccccccccccccccccccccccccccccccccccccccccccccccccccccccccccccccccccccccccccccccccccccccccccccccccccccccccccccccccccccccccccccccccccccccccccccccccccccscccccccccccccccccccc" />
      <path
         id="h1-1"
         d="m 747.9703,384.85369 c -0.98582,117.84019 10.92,-153.96305 -7.17,-136.61617 -1.31,-2.46247 9.88,-5.62488 0.34,-4.95023 -4.24,-0.37106 1,-3.37324 -1.72,-4.04789 -2.49,-0.35419 1.86,-3.65153 -2.2,-2.85882 -8.74,-1.13846 7.4,-4.70567 0.13,-5.00082 -1.16,0.11806 -2.66,-0.69995 -2.15,-1.57699 5.62,-3.76116 -4.52,-0.26143 -1.81,-3.37324 4.06,-1.34086 1.25,-2.18417 -1.55,-2.12514 -0.43,-0.18553 0.51,-5.75981 -2.86,-3.37324 1.48,6.24892 -6.36,2.15887 -2.25,5.53211 5.14,2.52993 -5,-0.21083 -0.08,4.26715 -7.81,-0.30359 1.8,2.74919 -1.33,4.50327 -5.19,-0.48912 0.77,2.07454 -0.29,3.41541 -14.58,-2.5721 4.72,5.32128 -5.53,4.60447 -1.7,1.50952 5.19,2.41186 1.22,3.92139 -9,-1.96491 -7.62,1.30713 -0.87,3.45757 -0.85,2.76605 -7.17,0.53128 -6.46,3.88765 -0.29995,-0.73841 -1.12444,-1.2336 -2.05,-1.23123 -3.92,-1.1975 2.25,-1.68662 0.32,-2.74919 -1,-0.10119 -2.49,0.54815 -3.16,-0.26142 5,-3.02748 -6.35,-0.24456 0.94,-3.62623 -5.75,-0.253 2.74,-2.24321 -2.88,-1.99865 -2.72,-1.00354 4.24,-1.58542 -0.35,-2.20104 -2.92,-0.84331 2.21,-1.46736 0.2,-2.04081 -0.61,0.1265 -1.88,-0.0759 -1.43,-0.78427 3.25,-0.69152 -0.26,-0.68309 -0.35,-1.68662 2.08,-0.50599 0.08,-0.79272 -0.13,-1.48423 2,0.91078 -0.21,-4.07318 -1.07,-2.87569 -2.69,2.52993 -0.16,3.86236 -3.16,4.41051 2.16,2.05768 -0.56,1.11317 -0.55,2.4456 1.66,1.49266 0.5,1.39146 -1.13,1.3999 2.07,2.99375 0.2,2.07454 -1.63,3.09494 3,2.26007 2.38,2.66486 -1.1,3.49974 6.38,5.77667 -5.28,1.28183 -0.27,5.05986 -1.68042,0.92313 -3.41971,1.76771 -5.21,2.52993 -5.88,-1.53483 5.87,-2.75763 -2.9,-4.15752 5,-5.47308 -2.77,-0.51442 0.52,-5.58271 -1.63,0 -2.78,0.0843 -1.13,-1.40833 0,-1.32399 -2.69,-0.39635 -0.54,-2.43716 -2.57,-0.53972 -2.07,-0.40479 -0.87,-2.15044 -1.67,-0.0506 -1.61,-1.2734 -2.3,-2.26007 -1.75,-0.92764 -2.47,4.92493 -1.2,4.35148 -3.88,1.99864 2.78,1.82998 -2.14,2.48776 -0.76,0.95294 3.25,1.0457 0.57,1.99021 -4.6,0.61562 2.37,1.1975 -0.35,2.20947 -5,-0.53128 2.12,2.14201 -2.68,1.82998 -6,-1.1216 1.92,-2.52993 -3.55,-3.4913 3.51,-3.70213 -1.9,-0.63248 0.38,-4.07318 -1.19,0 -2,0.0675 -0.82,-1.02041 0,-0.96981 -2,-0.30359 -0.4,-1.78782 -1.93,-0.61561 -0.68,-1.62758 -2.31,-3.22144 -0.68,-0.77584 -2.23,2.69016 -0.78,2.09984 -0.17,0.52285 -1.6,0.69995 -0.1,1.07944 -0.07,0.72524 -2.61,0.69995 -0.25,1.21436 0.33,0.51442 -0.6,0.66622 -1,0.56502 -1.46,0.43009 2.29,0.89391 0.15,1.49266 -3.35,0.45539 1.73,0.84331 -0.25,1.61072 -3.5,-0.24456 1.48,1.35773 -2.1,1.45893 4.39,2.71545 -9.59,0.43852 0,-4.7394 -3.38,-2.05768 -6.84,0.26986 -3,-5.65018 -3,0 -5.09,0.16023 -2.06,-2.52993 0.24,-2.63956 -5.17,-0.16023 -1,-4.46111 -6.9,-1.29869 0.83,-0.84331 -5.78,-8.0536 -3.11,-2.02395 -1.33,3.11181 -3.06,3.65996 -2.07,0.43852 -0.4,2.03238 1.11,1.58542 -0.41,1.30713 -4,1.73722 -0.24,2.70703 -0.17,1.79625 -6.55,1.74565 -0.63,3.02748 0.81,1.29026 -1.5,1.68662 -2.62,1.41676 -3.67,1.05414 5.71,2.23477 0.37,3.73586 -8.39,1.1216 4.33,2.17574 -0.63,4.02259 -10.29,-0.45539 5.25,3.18771 -5.27,3.65153 0.17,1.76252 4.61,0.84331 4.49,2.74076 -1.86,2.3444 -9.73,-0.56502 -2.77,3.87922 -0.93,2.02394 -7.89,-1.1975 -6.27,1.88058 3,0.84331 4.86,2.52993 1.14,3.55877 -7.71,1.28183 -5.08,10.8028 -10,15.23017 -5.1,0.0506 -1.56,-2.48776 0.16,-4.03102 -2.44,-1.34929 -4.9,-0.17709 -2.17,-4.11535 -2.17,0 -3.7,0.11806 -1.5,-1.86371 0,-1.76252 -3.58,-0.53129 -0.72,-3.24675 -3.42,-0.71681 -2.75,-0.53128 -1.15,-2.85882 -2.23,-0.0675 -2.15,-1.68662 -3.06,-3.00218 -2.27,-1.47579 -1,2.26007 -2.23,2.66486 -1.51,0.32046 -0.29,1.48422 0.81,1.1469 -0.3,0.95294 -2.92,1.2734 -0.18,1.97335 -0.12,1.30713 -4.77,1.27339 -0.45,2.20947 0.59,0.9445 -1.1,1.20593 -1.92,1.02883 -2.66,0.76742 4.16,1.62759 0.28,2.71546 -6.11,0.84331 3.15,1.59386 -0.46,2.93472 -7.48,-0.32889 3.8,2.3191 -3.84,2.65642 7.29,3.94669 0.73,1.07101 -0.63,3.5672 4.63,2.32754 -1.08,1.2987 -2.84,1.87215 7.79,-6.06339 -4.17,-0.84331 0.78,-7.33679 -2.34,0 -4,0.12649 -1.62,-2.01551 0.19,-2.06611 -4,-0.1265 -0.78,-3.4913 -7,-1.16377 1.23,-2.20948 -2,-3.28891 -1.94,0.25299 -2.84,-6.19833 -4.22,-2.08298 0.76,1.61072 -3.55,3.17085 0.17,3.16241 -0.31,1.02884 -3.14,1.36617 -0.18,2.12514 -0.14,1.40833 -5.14,1.36617 -0.5,2.37814 0.64,1.01197 -1.18,1.29869 -2,1.11317 -2.88,0.84331 4.48,1.74565 0.29,2.92628 -6.58,0.88548 3.4,1.68662 -0.5,3.15398 -8,-0.35419 4.11,2.52993 -4.13,2.86725 10.59,5.31285 -6,0.48069 1.35,5.18636 -1,1.16376 -3.16,0.22769 -4.52,0.37949 -0.43,3.42383 7.08,2.00707 -3.37,5.16105 -5.71,0.40479 4.63,-3.75273 -1.52,-2.96001 -1.79,-0.19397 -0.1,-0.84331 -1.27,-3.10338 -0.94,-2.08298 -5.06,-0.1265 0.31,-3.28048 -2.34,-0.71681 -2.73,-0.13493 -1.62,-2.25164 -0.67,-0.0759 -2.75,0.37106 -1.75,-0.77584 2.27,-0.75055 0.7,-1.2228 -0.86,-1.18907 -0.24,-0.1012 0.29,-3.21301 -1.6,-1.87215 0.94,2.96845 -3.33,1.53483 -1.26,3.09495 2.87,1.39146 -2.79,-0.11806 0,2.37813 -4.35,-0.16022 1,1.54326 -0.75,2.52993 -2.89,-0.26986 0.44,1.15534 -0.16,1.90588 -7.36,-1.40832 2.25,3.09495 -3.09,2.5721 -1,0.84331 2.9,1.34929 0.69,2.1926 -4.72,-1.13003 -4.13,0.84331 -0.49,1.93118 -0.37,1.4505 -5.23,0.54815 -3.18,2.52993 -2.82,0.84331 -8,1.1722 -4.29,-2.33597 -4.08,-0.54815 -3.25,-7.48859 -5.66,-0.35419 -1.62,0.33733 -0.31,1.57699 0.86,1.2228 -0.32,1.02041 -3.13,1.35773 -0.19,2.10828 -0.13,1.40832 -5.1,1.36616 -0.49,2.36126 0.64,1.01198 -1.17,1.29027 -2,1.10474 -2.86,0.84331 4.45,1.74565 0.29,2.90942 -6.53,0.84331 3.38,1.68662 -0.49,3.13711 -8,-0.35419 4.07,2.47933 -4.1,2.84195 10.51,5.27912 -5.95,0.48069 1.33,5.16106 -0.94,1.1469 -3.14,0.21926 -4.49,0.37106 -2.75,1.55169 6,2.20947 0.45,3.90452 -1.57,-0.18553 -3.88,1.54326 -2,2.82509 -1.09,1.03727 -5.42,1.93961 -1.85,0.12649 -3.17,-1.03727 -1.57,-0.67464 -0.8,-2.12514 -4.17,-0.0422 1.54,-1.18906 -1.15,-1.58542 -2,-0.68308 1.57,-0.53128 -0.8,-1.81311 2.22,0 -0.35,-0.92765 0.1,-1.89745 -0.83,-2.46247 -1.36,1.39989 -2.52,1.2481 -1.87,0.69151 3.06,1.43362 -1.21,1.97334 1.85,1.76252 -0.48,0.94451 -0.47,2.09141 1.42,1.2734 0.43,1.18907 -1,1.1975 1.66,2.22634 0.09,1.90588 -1.4,2.65642 2.57,1.93118 2,2.27694 -0.94,3.00219 6.39,4.4864 -13.47,6.51878 -3.13,-0.65778 -2.84,-1.56856 -5.71,-0.2024 -2.53,-4.79 -2.53,0 -4.3,0.13493 -1.74,-2.17574 0.2,-2.22634 -4.38,-0.13493 -0.85,-3.77803 -5.53,-0.84331 0.39,-1.2987 -4.9,-6.82238 -2.63,-1.68661 -1.13,2.63113 -2.59,3.10338 -1.75,0.37106 -0.34,1.68662 0.94,1.34087 -0.34,1.10473 -3.4,1.47579 -0.2,2.2938 -0.15,1.51796 -5.56,1.47579 -0.54,2.52993 0.69,1.0963 -1.27,1.40833 -2.22,1.20593 -3.11,0.89391 4.84,1.88901 0.32,3.16241 -7.11,0.95294 3.67,1.84685 -0.54,3.41541 -8.7,-0.38793 4.44,2.69015 -4.46,3.08651 0.14,1.49266 3.9,0.70838 3.8,2.32754 -11.08,2.0661 4.62,4.06475 -7.23,3.69369 -3,1.68662 6.48,2.52993 0.54,4.21655 -19.56,13.83028 -40.93284,39.58483 -67.65,33.66492 -47.34445,5.88351 22.53677,27.38338 23.15094,51.66725 0.98532,38.95842 -36.64971,89.50974 25.55128,85.38592 58.98658,-3.91071 -77.73087,-30.37833 -45.01817,-3.41686 4.70081,3.87436 18.25715,-0.78955 25.86585,-0.16333 66.7022,5.48985 225.02591,8.29915 248.35698,4.45261 16.33749,-2.69352 36.43962,-5.65927 20.26478,0.0395 -9.95401,3.50701 2.58427,8.62976 3.66602,-25.79492 1.07229,-34.12401 -0.31448,-93.77681 -0.49768,-93.33906 z m -71.39,-133.1333 c 1.82,-0.98668 4.91,1.96491 0.87,1.34086 -0.56,-0.28673 -1.77,-0.77585 -0.87,-1.34086 z m -11.51,-0.35419 c 1.22,-0.80115 0.69,0.15179 -0.18,0.35419 -0.43,0.0675 -0.07,-0.16023 0.18,-0.35419 z m -54.73,25.54385 c 0.47106,0.28382 0.99978,0.49247 1.56,0.61561 -0.68,0.11807 -1.97,-0.66621 -1.56,-0.61561 z"
         style="fill:#060000;fill-opacity:1;stroke-width:0.91831893"
         inkscape:connector-curvature="0"
         sodipodi:nodetypes="ccccccccccccccccccccccccccccccccccccccccccccccccccccccccccccccccccccccccccccccccccccccccccccccccccccccccccccccccccccccccccccccccccccccccccccccccccccccccccccccccccccsssssssccccccccccc" />
      <rect
         id="rect3840"
         width="76.492538"
         height="31.716417"
         x="-155.41045"
         y="363.29105"
         style="fill:#e9c6af" />
    </g>
  </g>
</svg>
